G04 #@! TF.GenerationSoftware,KiCad,Pcbnew,(5.1.5)-3*
G04 #@! TF.CreationDate,2020-04-03T18:33:56+02:00*
G04 #@! TF.ProjectId,Calefacci_n_CC2530,43616c65-6661-4636-9369-f36e5f434332,rev?*
G04 #@! TF.SameCoordinates,Original*
G04 #@! TF.FileFunction,Copper,L2,Bot*
G04 #@! TF.FilePolarity,Positive*
%FSLAX46Y46*%
G04 Gerber Fmt 4.6, Leading zero omitted, Abs format (unit mm)*
G04 Created by KiCad (PCBNEW (5.1.5)-3) date 2020-04-03 18:33:56*
%MOMM*%
%LPD*%
G04 APERTURE LIST*
%ADD10O,1.600000X1.600000*%
%ADD11R,1.600000X1.600000*%
%ADD12C,1.200000*%
%ADD13C,1.400000*%
%ADD14C,2.000000*%
%ADD15C,4.000000*%
%ADD16C,0.600000*%
%ADD17C,0.150000*%
%ADD18C,0.300000*%
%ADD19C,1.000000*%
%ADD20C,0.254000*%
G04 APERTURE END LIST*
D10*
X189580000Y-112000000D03*
D11*
X197200000Y-112000000D03*
D10*
X186100000Y-97380000D03*
D11*
X186100000Y-105000000D03*
D10*
X181900000Y-97380000D03*
D11*
X181900000Y-105000000D03*
D10*
X177700000Y-97380000D03*
D11*
X177700000Y-105000000D03*
D10*
X173500000Y-97380000D03*
D11*
X173500000Y-105000000D03*
D10*
X169300000Y-97380000D03*
D11*
X169300000Y-105000000D03*
D12*
X113900000Y-136700000D03*
X108900000Y-136700000D03*
X103700000Y-107300000D03*
X119100000Y-107300000D03*
D13*
X189640000Y-120040000D03*
X197260000Y-120040000D03*
X189640000Y-117500000D03*
X197260000Y-117500000D03*
X197260000Y-130200000D03*
X189640000Y-130200000D03*
D12*
X136500000Y-95500000D03*
X139040000Y-95500000D03*
X136500000Y-98040000D03*
X139040000Y-98040000D03*
X136500000Y-100580000D03*
X139040000Y-100580000D03*
X136500000Y-103120000D03*
X139040000Y-103120000D03*
X136500000Y-105660000D03*
X139040000Y-105660000D03*
X136500000Y-108200000D03*
X139040000Y-108200000D03*
X156820000Y-95500000D03*
X159360000Y-95500000D03*
X156820000Y-98040000D03*
X159360000Y-98040000D03*
X156820000Y-100580000D03*
X159360000Y-100580000D03*
X156820000Y-103120000D03*
X159360000Y-103120000D03*
X156820000Y-105660000D03*
X159360000Y-105660000D03*
X156820000Y-108200000D03*
X159360000Y-108200000D03*
D14*
X134600000Y-145500000D03*
D15*
X125000000Y-145000000D03*
D14*
X141600000Y-145500000D03*
D15*
X115000000Y-145000000D03*
D14*
X148600000Y-145500000D03*
X155600000Y-145500000D03*
X162600000Y-145500000D03*
X169600000Y-145500000D03*
X176600000Y-145500000D03*
X183600000Y-145500000D03*
D15*
X193500000Y-137000000D03*
D16*
X130600000Y-126000000D03*
X179800000Y-126000000D03*
X172800000Y-126000000D03*
X165800000Y-126000000D03*
X158800000Y-126000000D03*
X151800000Y-126000000D03*
X144800000Y-126000000D03*
X137700000Y-126000000D03*
X185700000Y-121000000D03*
X132500000Y-128200000D03*
X139600000Y-128200000D03*
X146600000Y-128200000D03*
X153600000Y-128200000D03*
X160600000Y-128200000D03*
X167700000Y-128200000D03*
X174600000Y-128200000D03*
X181600000Y-128200000D03*
D17*
X139888528Y-105660000D02*
X141028528Y-106800000D01*
X139040000Y-105660000D02*
X139888528Y-105660000D01*
X161011370Y-106800000D02*
X160500000Y-106800000D01*
X169300000Y-98511370D02*
X161011370Y-106800000D01*
X169300000Y-97380000D02*
X169300000Y-98511370D01*
X141028528Y-106800000D02*
X160500000Y-106800000D01*
D18*
X159360000Y-98040000D02*
X159360000Y-95500000D01*
X159360000Y-95500000D02*
X157360000Y-93500000D01*
X155668532Y-93499990D02*
X132900010Y-93499990D01*
X155668542Y-93500000D02*
X155668532Y-93499990D01*
X119699999Y-106700001D02*
X119100000Y-107300000D01*
X132900010Y-93499990D02*
X119699999Y-106700001D01*
X157360000Y-93500000D02*
X155668542Y-93500000D01*
X119100000Y-107300000D02*
X119100000Y-123100000D01*
X119100000Y-123100000D02*
X122000000Y-126000000D01*
X122000000Y-126000000D02*
X130600000Y-126000000D01*
X172800000Y-126000000D02*
X179800000Y-126000000D01*
X158800000Y-126000000D02*
X165800000Y-126000000D01*
X165800000Y-126000000D02*
X172800000Y-126000000D01*
X144800000Y-126000000D02*
X151800000Y-126000000D01*
X151800000Y-126000000D02*
X158800000Y-126000000D01*
X130600000Y-126000000D02*
X137700000Y-126000000D01*
X137700000Y-126000000D02*
X144800000Y-126000000D01*
X197260000Y-124840000D02*
X197260000Y-120040000D01*
X196100000Y-126000000D02*
X197260000Y-124840000D01*
X179800000Y-126000000D02*
X185700000Y-126000000D01*
X185700000Y-121000000D02*
X185700000Y-126000000D01*
X185700000Y-126000000D02*
X196100000Y-126000000D01*
D17*
X171820000Y-95700000D02*
X173500000Y-97380000D01*
X137460000Y-104700000D02*
X162500000Y-104700000D01*
X136500000Y-105660000D02*
X137460000Y-104700000D01*
X162500000Y-104700000D02*
X165800000Y-101400000D01*
X168600000Y-95700000D02*
X171820000Y-95700000D01*
X165800000Y-101400000D02*
X165800000Y-98500000D01*
X165800000Y-98500000D02*
X168600000Y-95700000D01*
X176900001Y-96580001D02*
X177700000Y-97380000D01*
X175719990Y-95399990D02*
X176900001Y-96580001D01*
X136500000Y-103120000D02*
X137480000Y-104100000D01*
X162675722Y-104100000D02*
X165499990Y-101275732D01*
X168475732Y-95399990D02*
X175719990Y-95399990D01*
X165499990Y-101275732D02*
X165499990Y-98375732D01*
X137480000Y-104100000D02*
X162675722Y-104100000D01*
X165499990Y-98375732D02*
X168475732Y-95399990D01*
X168351464Y-95099980D02*
X179619980Y-95099980D01*
X165175722Y-98275722D02*
X168351464Y-95099980D01*
X139888528Y-100580000D02*
X141108528Y-101800000D01*
X141108528Y-101800000D02*
X164551444Y-101800000D01*
X139040000Y-100580000D02*
X139888528Y-100580000D01*
X179619980Y-95099980D02*
X181900000Y-97380000D01*
X164551444Y-101800000D02*
X165175722Y-101175722D01*
X165175722Y-101175722D02*
X165175722Y-98275722D01*
X183519970Y-94799970D02*
X168227195Y-94799971D01*
X186100000Y-97380000D02*
X183519970Y-94799970D01*
X168227195Y-94799971D02*
X163527166Y-99500000D01*
X136500000Y-100580000D02*
X136520000Y-100580000D01*
X137600000Y-99500000D02*
X139000000Y-99500000D01*
X136520000Y-100580000D02*
X137600000Y-99500000D01*
X163527166Y-99500000D02*
X139000000Y-99500000D01*
X139000000Y-99500000D02*
X138300000Y-99500000D01*
D19*
X189640000Y-130200000D02*
X197260000Y-130200000D01*
D18*
X136500000Y-95500000D02*
X137900000Y-94100000D01*
X155420000Y-94100000D02*
X156820000Y-95500000D01*
X137900000Y-94100000D02*
X155420000Y-94100000D01*
D20*
G36*
X197482069Y-88921954D02*
G01*
X197825657Y-89084459D01*
X198151636Y-89279844D01*
X198456905Y-89506247D01*
X198738516Y-89761484D01*
X198993753Y-90043095D01*
X199220156Y-90348364D01*
X199415541Y-90674343D01*
X199578046Y-91017931D01*
X199594001Y-91062522D01*
X199594001Y-114560149D01*
X199546718Y-114656029D01*
X199369874Y-114920694D01*
X199160005Y-115160005D01*
X198920694Y-115369874D01*
X198656029Y-115546718D01*
X198370558Y-115687496D01*
X198069148Y-115789812D01*
X197756959Y-115851910D01*
X197435184Y-115873000D01*
X191479003Y-115873000D01*
X191472792Y-115873152D01*
X191082033Y-115892284D01*
X191069671Y-115893497D01*
X190682650Y-115950711D01*
X190670466Y-115953127D01*
X190628960Y-115963488D01*
X190505409Y-115880934D01*
X190172916Y-115743211D01*
X189819944Y-115673000D01*
X189460056Y-115673000D01*
X189107084Y-115743211D01*
X188774591Y-115880934D01*
X188475355Y-116080876D01*
X188220876Y-116335355D01*
X188020934Y-116634591D01*
X187883211Y-116967084D01*
X187813000Y-117320056D01*
X187813000Y-117679944D01*
X187875311Y-117993199D01*
X187849459Y-118035994D01*
X187843564Y-118046928D01*
X187674956Y-118399958D01*
X187670157Y-118411415D01*
X187536843Y-118779227D01*
X187533186Y-118791098D01*
X187436441Y-119170175D01*
X187433962Y-119182346D01*
X187374712Y-119569061D01*
X187373433Y-119581417D01*
X187352244Y-119972070D01*
X187352060Y-119978280D01*
X187323404Y-125423000D01*
X186277000Y-125423000D01*
X186277000Y-121445025D01*
X186344259Y-121344364D01*
X186399062Y-121212058D01*
X186427000Y-121071603D01*
X186427000Y-120928397D01*
X186399062Y-120787942D01*
X186344259Y-120655636D01*
X186264698Y-120536564D01*
X186163436Y-120435302D01*
X186044364Y-120355741D01*
X185912058Y-120300938D01*
X185771603Y-120273000D01*
X185628397Y-120273000D01*
X185487942Y-120300938D01*
X185355636Y-120355741D01*
X185236564Y-120435302D01*
X185135302Y-120536564D01*
X185055741Y-120655636D01*
X185000938Y-120787942D01*
X184973000Y-120928397D01*
X184973000Y-121071603D01*
X185000938Y-121212058D01*
X185055741Y-121344364D01*
X185123000Y-121445025D01*
X185123001Y-125423000D01*
X180245025Y-125423000D01*
X180144364Y-125355741D01*
X180012058Y-125300938D01*
X179871603Y-125273000D01*
X179728397Y-125273000D01*
X179587942Y-125300938D01*
X179455636Y-125355741D01*
X179354975Y-125423000D01*
X173245025Y-125423000D01*
X173144364Y-125355741D01*
X173012058Y-125300938D01*
X172871603Y-125273000D01*
X172728397Y-125273000D01*
X172587942Y-125300938D01*
X172455636Y-125355741D01*
X172354975Y-125423000D01*
X166245025Y-125423000D01*
X166144364Y-125355741D01*
X166012058Y-125300938D01*
X165871603Y-125273000D01*
X165728397Y-125273000D01*
X165587942Y-125300938D01*
X165455636Y-125355741D01*
X165354975Y-125423000D01*
X159245025Y-125423000D01*
X159144364Y-125355741D01*
X159012058Y-125300938D01*
X158871603Y-125273000D01*
X158728397Y-125273000D01*
X158587942Y-125300938D01*
X158455636Y-125355741D01*
X158354975Y-125423000D01*
X152245025Y-125423000D01*
X152144364Y-125355741D01*
X152012058Y-125300938D01*
X151871603Y-125273000D01*
X151728397Y-125273000D01*
X151587942Y-125300938D01*
X151455636Y-125355741D01*
X151354975Y-125423000D01*
X145245025Y-125423000D01*
X145144364Y-125355741D01*
X145012058Y-125300938D01*
X144871603Y-125273000D01*
X144728397Y-125273000D01*
X144587942Y-125300938D01*
X144455636Y-125355741D01*
X144354975Y-125423000D01*
X138145025Y-125423000D01*
X138044364Y-125355741D01*
X137912058Y-125300938D01*
X137771603Y-125273000D01*
X137628397Y-125273000D01*
X137487942Y-125300938D01*
X137355636Y-125355741D01*
X137254975Y-125423000D01*
X131045025Y-125423000D01*
X130944364Y-125355741D01*
X130812058Y-125300938D01*
X130671603Y-125273000D01*
X130528397Y-125273000D01*
X130387942Y-125300938D01*
X130255636Y-125355741D01*
X130154975Y-125423000D01*
X122239001Y-125423000D01*
X119677000Y-122860999D01*
X119677000Y-111879151D01*
X188353000Y-111879151D01*
X188353000Y-112120849D01*
X188400153Y-112357903D01*
X188492647Y-112581202D01*
X188626927Y-112782167D01*
X188797833Y-112953073D01*
X188998798Y-113087353D01*
X189222097Y-113179847D01*
X189459151Y-113227000D01*
X189700849Y-113227000D01*
X189937903Y-113179847D01*
X190161202Y-113087353D01*
X190362167Y-112953073D01*
X190533073Y-112782167D01*
X190667353Y-112581202D01*
X190759847Y-112357903D01*
X190807000Y-112120849D01*
X190807000Y-111879151D01*
X190759847Y-111642097D01*
X190667353Y-111418798D01*
X190533073Y-111217833D01*
X190515240Y-111200000D01*
X195970934Y-111200000D01*
X195970934Y-112800000D01*
X195979178Y-112883707D01*
X196003595Y-112964196D01*
X196043245Y-113038376D01*
X196096605Y-113103395D01*
X196161624Y-113156755D01*
X196235804Y-113196405D01*
X196316293Y-113220822D01*
X196400000Y-113229066D01*
X198000000Y-113229066D01*
X198083707Y-113220822D01*
X198164196Y-113196405D01*
X198238376Y-113156755D01*
X198303395Y-113103395D01*
X198356755Y-113038376D01*
X198396405Y-112964196D01*
X198420822Y-112883707D01*
X198429066Y-112800000D01*
X198429066Y-111200000D01*
X198420822Y-111116293D01*
X198396405Y-111035804D01*
X198356755Y-110961624D01*
X198303395Y-110896605D01*
X198238376Y-110843245D01*
X198164196Y-110803595D01*
X198083707Y-110779178D01*
X198000000Y-110770934D01*
X196400000Y-110770934D01*
X196316293Y-110779178D01*
X196235804Y-110803595D01*
X196161624Y-110843245D01*
X196096605Y-110896605D01*
X196043245Y-110961624D01*
X196003595Y-111035804D01*
X195979178Y-111116293D01*
X195970934Y-111200000D01*
X190515240Y-111200000D01*
X190362167Y-111046927D01*
X190161202Y-110912647D01*
X189937903Y-110820153D01*
X189700849Y-110773000D01*
X189459151Y-110773000D01*
X189222097Y-110820153D01*
X188998798Y-110912647D01*
X188797833Y-111046927D01*
X188626927Y-111217833D01*
X188492647Y-111418798D01*
X188400153Y-111642097D01*
X188353000Y-111879151D01*
X119677000Y-111879151D01*
X119677000Y-108149623D01*
X119752988Y-108098849D01*
X135473000Y-108098849D01*
X135473000Y-108301151D01*
X135512467Y-108499565D01*
X135589885Y-108686467D01*
X135702277Y-108854674D01*
X135845326Y-108997723D01*
X136013533Y-109110115D01*
X136200435Y-109187533D01*
X136398849Y-109227000D01*
X136601151Y-109227000D01*
X136799565Y-109187533D01*
X136986467Y-109110115D01*
X137154674Y-108997723D01*
X137297723Y-108854674D01*
X137410115Y-108686467D01*
X137487533Y-108499565D01*
X137527000Y-108301151D01*
X137527000Y-108098849D01*
X138013000Y-108098849D01*
X138013000Y-108301151D01*
X138052467Y-108499565D01*
X138129885Y-108686467D01*
X138242277Y-108854674D01*
X138385326Y-108997723D01*
X138553533Y-109110115D01*
X138740435Y-109187533D01*
X138938849Y-109227000D01*
X139141151Y-109227000D01*
X139339565Y-109187533D01*
X139526467Y-109110115D01*
X139694674Y-108997723D01*
X139837723Y-108854674D01*
X139950115Y-108686467D01*
X140027533Y-108499565D01*
X140067000Y-108301151D01*
X140067000Y-108098849D01*
X140027533Y-107900435D01*
X139950115Y-107713533D01*
X139837723Y-107545326D01*
X139694674Y-107402277D01*
X139526467Y-107289885D01*
X139339565Y-107212467D01*
X139141151Y-107173000D01*
X138938849Y-107173000D01*
X138740435Y-107212467D01*
X138553533Y-107289885D01*
X138385326Y-107402277D01*
X138242277Y-107545326D01*
X138129885Y-107713533D01*
X138052467Y-107900435D01*
X138013000Y-108098849D01*
X137527000Y-108098849D01*
X137487533Y-107900435D01*
X137410115Y-107713533D01*
X137297723Y-107545326D01*
X137154674Y-107402277D01*
X136986467Y-107289885D01*
X136799565Y-107212467D01*
X136601151Y-107173000D01*
X136398849Y-107173000D01*
X136200435Y-107212467D01*
X136013533Y-107289885D01*
X135845326Y-107402277D01*
X135702277Y-107545326D01*
X135589885Y-107713533D01*
X135512467Y-107900435D01*
X135473000Y-108098849D01*
X119752988Y-108098849D01*
X119754674Y-108097723D01*
X119897723Y-107954674D01*
X120010115Y-107786467D01*
X120087533Y-107599565D01*
X120127000Y-107401151D01*
X120127000Y-107198849D01*
X120108775Y-107107226D01*
X129277152Y-97938849D01*
X135473000Y-97938849D01*
X135473000Y-98141151D01*
X135512467Y-98339565D01*
X135589885Y-98526467D01*
X135702277Y-98694674D01*
X135845326Y-98837723D01*
X136013533Y-98950115D01*
X136200435Y-99027533D01*
X136398849Y-99067000D01*
X136601151Y-99067000D01*
X136799565Y-99027533D01*
X136986467Y-98950115D01*
X137154674Y-98837723D01*
X137297723Y-98694674D01*
X137410115Y-98526467D01*
X137487533Y-98339565D01*
X137527000Y-98141151D01*
X137527000Y-97938849D01*
X137487533Y-97740435D01*
X137410115Y-97553533D01*
X137297723Y-97385326D01*
X137154674Y-97242277D01*
X136986467Y-97129885D01*
X136799565Y-97052467D01*
X136601151Y-97013000D01*
X136398849Y-97013000D01*
X136200435Y-97052467D01*
X136013533Y-97129885D01*
X135845326Y-97242277D01*
X135702277Y-97385326D01*
X135589885Y-97553533D01*
X135512467Y-97740435D01*
X135473000Y-97938849D01*
X129277152Y-97938849D01*
X130866237Y-96349764D01*
X135829841Y-96349764D01*
X135877148Y-96573348D01*
X136098516Y-96674237D01*
X136335313Y-96730000D01*
X136578438Y-96738495D01*
X136818549Y-96699395D01*
X137046418Y-96614202D01*
X137122852Y-96573348D01*
X137170159Y-96349764D01*
X136500000Y-95679605D01*
X135829841Y-96349764D01*
X130866237Y-96349764D01*
X131637563Y-95578438D01*
X135261505Y-95578438D01*
X135300605Y-95818549D01*
X135385798Y-96046418D01*
X135426652Y-96122852D01*
X135650236Y-96170159D01*
X136320395Y-95500000D01*
X136679605Y-95500000D01*
X137349764Y-96170159D01*
X137573348Y-96122852D01*
X137674237Y-95901484D01*
X137730000Y-95664687D01*
X137738495Y-95421562D01*
X137734797Y-95398849D01*
X138013000Y-95398849D01*
X138013000Y-95601151D01*
X138052467Y-95799565D01*
X138129885Y-95986467D01*
X138242277Y-96154674D01*
X138385326Y-96297723D01*
X138553533Y-96410115D01*
X138740435Y-96487533D01*
X138938849Y-96527000D01*
X139141151Y-96527000D01*
X139339565Y-96487533D01*
X139526467Y-96410115D01*
X139616788Y-96349764D01*
X156149841Y-96349764D01*
X156197148Y-96573348D01*
X156418516Y-96674237D01*
X156655313Y-96730000D01*
X156898438Y-96738495D01*
X157138549Y-96699395D01*
X157366418Y-96614202D01*
X157442852Y-96573348D01*
X157490159Y-96349764D01*
X156820000Y-95679605D01*
X156149841Y-96349764D01*
X139616788Y-96349764D01*
X139694674Y-96297723D01*
X139837723Y-96154674D01*
X139950115Y-95986467D01*
X140027533Y-95799565D01*
X140067000Y-95601151D01*
X140067000Y-95578438D01*
X155581505Y-95578438D01*
X155620605Y-95818549D01*
X155705798Y-96046418D01*
X155746652Y-96122852D01*
X155970236Y-96170159D01*
X156640395Y-95500000D01*
X155970236Y-94829841D01*
X155746652Y-94877148D01*
X155645763Y-95098516D01*
X155590000Y-95335313D01*
X155581505Y-95578438D01*
X140067000Y-95578438D01*
X140067000Y-95398849D01*
X140027533Y-95200435D01*
X139950115Y-95013533D01*
X139837723Y-94845326D01*
X139694674Y-94702277D01*
X139526467Y-94589885D01*
X139339565Y-94512467D01*
X139141151Y-94473000D01*
X138938849Y-94473000D01*
X138740435Y-94512467D01*
X138553533Y-94589885D01*
X138385326Y-94702277D01*
X138242277Y-94845326D01*
X138129885Y-95013533D01*
X138052467Y-95200435D01*
X138013000Y-95398849D01*
X137734797Y-95398849D01*
X137699395Y-95181451D01*
X137614202Y-94953582D01*
X137573348Y-94877148D01*
X137349764Y-94829841D01*
X136679605Y-95500000D01*
X136320395Y-95500000D01*
X135650236Y-94829841D01*
X135426652Y-94877148D01*
X135325763Y-95098516D01*
X135270000Y-95335313D01*
X135261505Y-95578438D01*
X131637563Y-95578438D01*
X132565765Y-94650236D01*
X135829841Y-94650236D01*
X136500000Y-95320395D01*
X137170159Y-94650236D01*
X137122852Y-94426652D01*
X136901484Y-94325763D01*
X136664687Y-94270000D01*
X136421562Y-94261505D01*
X136181451Y-94300605D01*
X135953582Y-94385798D01*
X135877148Y-94426652D01*
X135829841Y-94650236D01*
X132565765Y-94650236D01*
X133139011Y-94076990D01*
X155640104Y-94076990D01*
X155640206Y-94077000D01*
X155640213Y-94077000D01*
X155668541Y-94079790D01*
X155696870Y-94077000D01*
X157120999Y-94077000D01*
X157592195Y-94548197D01*
X157490158Y-94650234D01*
X157442852Y-94426652D01*
X157221484Y-94325763D01*
X156984687Y-94270000D01*
X156741562Y-94261505D01*
X156501451Y-94300605D01*
X156273582Y-94385798D01*
X156197148Y-94426652D01*
X156149841Y-94650236D01*
X156820000Y-95320395D01*
X156834143Y-95306253D01*
X157013748Y-95485858D01*
X156999605Y-95500000D01*
X157669764Y-96170159D01*
X157893348Y-96122852D01*
X157994237Y-95901484D01*
X158050000Y-95664687D01*
X158058495Y-95421562D01*
X158019395Y-95181451D01*
X157934202Y-94953582D01*
X157893348Y-94877148D01*
X157669766Y-94829842D01*
X157771803Y-94727805D01*
X158351225Y-95307227D01*
X158333000Y-95398849D01*
X158333000Y-95601151D01*
X158372467Y-95799565D01*
X158449885Y-95986467D01*
X158562277Y-96154674D01*
X158705326Y-96297723D01*
X158783001Y-96349623D01*
X158783000Y-97190377D01*
X158705326Y-97242277D01*
X158562277Y-97385326D01*
X158449885Y-97553533D01*
X158372467Y-97740435D01*
X158333000Y-97938849D01*
X158333000Y-98141151D01*
X158372467Y-98339565D01*
X158449885Y-98526467D01*
X158562277Y-98694674D01*
X158705326Y-98837723D01*
X158873533Y-98950115D01*
X158989137Y-98998000D01*
X157190863Y-98998000D01*
X157306467Y-98950115D01*
X157474674Y-98837723D01*
X157617723Y-98694674D01*
X157730115Y-98526467D01*
X157807533Y-98339565D01*
X157847000Y-98141151D01*
X157847000Y-97938849D01*
X157807533Y-97740435D01*
X157730115Y-97553533D01*
X157617723Y-97385326D01*
X157474674Y-97242277D01*
X157306467Y-97129885D01*
X157119565Y-97052467D01*
X156921151Y-97013000D01*
X156718849Y-97013000D01*
X156520435Y-97052467D01*
X156333533Y-97129885D01*
X156165326Y-97242277D01*
X156022277Y-97385326D01*
X155909885Y-97553533D01*
X155832467Y-97740435D01*
X155793000Y-97938849D01*
X155793000Y-98141151D01*
X155832467Y-98339565D01*
X155909885Y-98526467D01*
X156022277Y-98694674D01*
X156165326Y-98837723D01*
X156333533Y-98950115D01*
X156449137Y-98998000D01*
X139410863Y-98998000D01*
X139526467Y-98950115D01*
X139694674Y-98837723D01*
X139837723Y-98694674D01*
X139950115Y-98526467D01*
X140027533Y-98339565D01*
X140067000Y-98141151D01*
X140067000Y-97938849D01*
X140027533Y-97740435D01*
X139950115Y-97553533D01*
X139837723Y-97385326D01*
X139694674Y-97242277D01*
X139526467Y-97129885D01*
X139339565Y-97052467D01*
X139141151Y-97013000D01*
X138938849Y-97013000D01*
X138740435Y-97052467D01*
X138553533Y-97129885D01*
X138385326Y-97242277D01*
X138242277Y-97385326D01*
X138129885Y-97553533D01*
X138052467Y-97740435D01*
X138013000Y-97938849D01*
X138013000Y-98141151D01*
X138052467Y-98339565D01*
X138129885Y-98526467D01*
X138242277Y-98694674D01*
X138385326Y-98837723D01*
X138553533Y-98950115D01*
X138669137Y-98998000D01*
X137624643Y-98998000D01*
X137600000Y-98995573D01*
X137575357Y-98998000D01*
X137575347Y-98998000D01*
X137501591Y-99005264D01*
X137406964Y-99033969D01*
X137366368Y-99055668D01*
X137319754Y-99080583D01*
X137262464Y-99127600D01*
X137262456Y-99127608D01*
X137243316Y-99143316D01*
X137227607Y-99162457D01*
X136797924Y-99592141D01*
X136601151Y-99553000D01*
X136398849Y-99553000D01*
X136200435Y-99592467D01*
X136013533Y-99669885D01*
X135845326Y-99782277D01*
X135702277Y-99925326D01*
X135589885Y-100093533D01*
X135512467Y-100280435D01*
X135473000Y-100478849D01*
X135473000Y-100681151D01*
X135512467Y-100879565D01*
X135589885Y-101066467D01*
X135702277Y-101234674D01*
X135845326Y-101377723D01*
X136013533Y-101490115D01*
X136200435Y-101567533D01*
X136398849Y-101607000D01*
X136601151Y-101607000D01*
X136799565Y-101567533D01*
X136986467Y-101490115D01*
X137154674Y-101377723D01*
X137297723Y-101234674D01*
X137410115Y-101066467D01*
X137487533Y-100879565D01*
X137527000Y-100681151D01*
X137527000Y-100478849D01*
X137494496Y-100315439D01*
X137807936Y-100002000D01*
X138191045Y-100002000D01*
X138129885Y-100093533D01*
X138052467Y-100280435D01*
X138013000Y-100478849D01*
X138013000Y-100681151D01*
X138052467Y-100879565D01*
X138129885Y-101066467D01*
X138242277Y-101234674D01*
X138385326Y-101377723D01*
X138553533Y-101490115D01*
X138740435Y-101567533D01*
X138938849Y-101607000D01*
X139141151Y-101607000D01*
X139339565Y-101567533D01*
X139526467Y-101490115D01*
X139694674Y-101377723D01*
X139835495Y-101236902D01*
X140736131Y-102137538D01*
X140751844Y-102156684D01*
X140770990Y-102172397D01*
X140770993Y-102172400D01*
X140828282Y-102219417D01*
X140915491Y-102266031D01*
X141010118Y-102294736D01*
X141018960Y-102295607D01*
X141083875Y-102302000D01*
X141083882Y-102302000D01*
X141108528Y-102304427D01*
X141133173Y-102302000D01*
X156195673Y-102302000D01*
X156165326Y-102322277D01*
X156022277Y-102465326D01*
X155909885Y-102633533D01*
X155832467Y-102820435D01*
X155793000Y-103018849D01*
X155793000Y-103221151D01*
X155832467Y-103419565D01*
X155906378Y-103598000D01*
X139953622Y-103598000D01*
X140027533Y-103419565D01*
X140067000Y-103221151D01*
X140067000Y-103018849D01*
X140027533Y-102820435D01*
X139950115Y-102633533D01*
X139837723Y-102465326D01*
X139694674Y-102322277D01*
X139526467Y-102209885D01*
X139339565Y-102132467D01*
X139141151Y-102093000D01*
X138938849Y-102093000D01*
X138740435Y-102132467D01*
X138553533Y-102209885D01*
X138385326Y-102322277D01*
X138242277Y-102465326D01*
X138129885Y-102633533D01*
X138052467Y-102820435D01*
X138013000Y-103018849D01*
X138013000Y-103221151D01*
X138052467Y-103419565D01*
X138126378Y-103598000D01*
X137687935Y-103598000D01*
X137491178Y-103401243D01*
X137527000Y-103221151D01*
X137527000Y-103018849D01*
X137487533Y-102820435D01*
X137410115Y-102633533D01*
X137297723Y-102465326D01*
X137154674Y-102322277D01*
X136986467Y-102209885D01*
X136799565Y-102132467D01*
X136601151Y-102093000D01*
X136398849Y-102093000D01*
X136200435Y-102132467D01*
X136013533Y-102209885D01*
X135845326Y-102322277D01*
X135702277Y-102465326D01*
X135589885Y-102633533D01*
X135512467Y-102820435D01*
X135473000Y-103018849D01*
X135473000Y-103221151D01*
X135512467Y-103419565D01*
X135589885Y-103606467D01*
X135702277Y-103774674D01*
X135845326Y-103917723D01*
X136013533Y-104030115D01*
X136200435Y-104107533D01*
X136398849Y-104147000D01*
X136601151Y-104147000D01*
X136781243Y-104111178D01*
X137060065Y-104390000D01*
X136781243Y-104668822D01*
X136601151Y-104633000D01*
X136398849Y-104633000D01*
X136200435Y-104672467D01*
X136013533Y-104749885D01*
X135845326Y-104862277D01*
X135702277Y-105005326D01*
X135589885Y-105173533D01*
X135512467Y-105360435D01*
X135473000Y-105558849D01*
X135473000Y-105761151D01*
X135512467Y-105959565D01*
X135589885Y-106146467D01*
X135702277Y-106314674D01*
X135845326Y-106457723D01*
X136013533Y-106570115D01*
X136200435Y-106647533D01*
X136398849Y-106687000D01*
X136601151Y-106687000D01*
X136799565Y-106647533D01*
X136986467Y-106570115D01*
X137154674Y-106457723D01*
X137297723Y-106314674D01*
X137410115Y-106146467D01*
X137487533Y-105959565D01*
X137527000Y-105761151D01*
X137527000Y-105558849D01*
X137491178Y-105378757D01*
X137667935Y-105202000D01*
X138118093Y-105202000D01*
X138052467Y-105360435D01*
X138013000Y-105558849D01*
X138013000Y-105761151D01*
X138052467Y-105959565D01*
X138129885Y-106146467D01*
X138242277Y-106314674D01*
X138385326Y-106457723D01*
X138553533Y-106570115D01*
X138740435Y-106647533D01*
X138938849Y-106687000D01*
X139141151Y-106687000D01*
X139339565Y-106647533D01*
X139526467Y-106570115D01*
X139694674Y-106457723D01*
X139835495Y-106316902D01*
X140656131Y-107137538D01*
X140671844Y-107156684D01*
X140690990Y-107172397D01*
X140690992Y-107172399D01*
X140702787Y-107182079D01*
X140748283Y-107219417D01*
X140835492Y-107266031D01*
X140930119Y-107294736D01*
X141003875Y-107302000D01*
X141003884Y-107302000D01*
X141028527Y-107304427D01*
X141053170Y-107302000D01*
X156315402Y-107302000D01*
X156165326Y-107402277D01*
X156022277Y-107545326D01*
X155909885Y-107713533D01*
X155832467Y-107900435D01*
X155793000Y-108098849D01*
X155793000Y-108301151D01*
X155832467Y-108499565D01*
X155909885Y-108686467D01*
X156022277Y-108854674D01*
X156165326Y-108997723D01*
X156333533Y-109110115D01*
X156520435Y-109187533D01*
X156718849Y-109227000D01*
X156921151Y-109227000D01*
X157119565Y-109187533D01*
X157306467Y-109110115D01*
X157474674Y-108997723D01*
X157617723Y-108854674D01*
X157730115Y-108686467D01*
X157807533Y-108499565D01*
X157847000Y-108301151D01*
X157847000Y-108098849D01*
X157807533Y-107900435D01*
X157730115Y-107713533D01*
X157617723Y-107545326D01*
X157474674Y-107402277D01*
X157324598Y-107302000D01*
X158855402Y-107302000D01*
X158705326Y-107402277D01*
X158562277Y-107545326D01*
X158449885Y-107713533D01*
X158372467Y-107900435D01*
X158333000Y-108098849D01*
X158333000Y-108301151D01*
X158372467Y-108499565D01*
X158449885Y-108686467D01*
X158562277Y-108854674D01*
X158705326Y-108997723D01*
X158873533Y-109110115D01*
X159060435Y-109187533D01*
X159258849Y-109227000D01*
X159461151Y-109227000D01*
X159659565Y-109187533D01*
X159846467Y-109110115D01*
X160014674Y-108997723D01*
X160157723Y-108854674D01*
X160270115Y-108686467D01*
X160347533Y-108499565D01*
X160387000Y-108301151D01*
X160387000Y-108098849D01*
X160347533Y-107900435D01*
X160270115Y-107713533D01*
X160157723Y-107545326D01*
X160014674Y-107402277D01*
X159864598Y-107302000D01*
X160986727Y-107302000D01*
X161011370Y-107304427D01*
X161036013Y-107302000D01*
X161036023Y-107302000D01*
X161109779Y-107294736D01*
X161204406Y-107266031D01*
X161291615Y-107219417D01*
X161368054Y-107156684D01*
X161383772Y-107137532D01*
X164321304Y-104200000D01*
X168070934Y-104200000D01*
X168070934Y-105800000D01*
X168079178Y-105883707D01*
X168103595Y-105964196D01*
X168143245Y-106038376D01*
X168196605Y-106103395D01*
X168261624Y-106156755D01*
X168335804Y-106196405D01*
X168416293Y-106220822D01*
X168500000Y-106229066D01*
X170100000Y-106229066D01*
X170183707Y-106220822D01*
X170264196Y-106196405D01*
X170338376Y-106156755D01*
X170403395Y-106103395D01*
X170456755Y-106038376D01*
X170496405Y-105964196D01*
X170520822Y-105883707D01*
X170529066Y-105800000D01*
X170529066Y-104200000D01*
X172270934Y-104200000D01*
X172270934Y-105800000D01*
X172279178Y-105883707D01*
X172303595Y-105964196D01*
X172343245Y-106038376D01*
X172396605Y-106103395D01*
X172461624Y-106156755D01*
X172535804Y-106196405D01*
X172616293Y-106220822D01*
X172700000Y-106229066D01*
X174300000Y-106229066D01*
X174383707Y-106220822D01*
X174464196Y-106196405D01*
X174538376Y-106156755D01*
X174603395Y-106103395D01*
X174656755Y-106038376D01*
X174696405Y-105964196D01*
X174720822Y-105883707D01*
X174729066Y-105800000D01*
X174729066Y-104200000D01*
X176470934Y-104200000D01*
X176470934Y-105800000D01*
X176479178Y-105883707D01*
X176503595Y-105964196D01*
X176543245Y-106038376D01*
X176596605Y-106103395D01*
X176661624Y-106156755D01*
X176735804Y-106196405D01*
X176816293Y-106220822D01*
X176900000Y-106229066D01*
X178500000Y-106229066D01*
X178583707Y-106220822D01*
X178664196Y-106196405D01*
X178738376Y-106156755D01*
X178803395Y-106103395D01*
X178856755Y-106038376D01*
X178896405Y-105964196D01*
X178920822Y-105883707D01*
X178929066Y-105800000D01*
X178929066Y-104200000D01*
X180670934Y-104200000D01*
X180670934Y-105800000D01*
X180679178Y-105883707D01*
X180703595Y-105964196D01*
X180743245Y-106038376D01*
X180796605Y-106103395D01*
X180861624Y-106156755D01*
X180935804Y-106196405D01*
X181016293Y-106220822D01*
X181100000Y-106229066D01*
X182700000Y-106229066D01*
X182783707Y-106220822D01*
X182864196Y-106196405D01*
X182938376Y-106156755D01*
X183003395Y-106103395D01*
X183056755Y-106038376D01*
X183096405Y-105964196D01*
X183120822Y-105883707D01*
X183129066Y-105800000D01*
X183129066Y-104200000D01*
X184870934Y-104200000D01*
X184870934Y-105800000D01*
X184879178Y-105883707D01*
X184903595Y-105964196D01*
X184943245Y-106038376D01*
X184996605Y-106103395D01*
X185061624Y-106156755D01*
X185135804Y-106196405D01*
X185216293Y-106220822D01*
X185300000Y-106229066D01*
X186900000Y-106229066D01*
X186983707Y-106220822D01*
X187064196Y-106196405D01*
X187138376Y-106156755D01*
X187203395Y-106103395D01*
X187256755Y-106038376D01*
X187296405Y-105964196D01*
X187320822Y-105883707D01*
X187329066Y-105800000D01*
X187329066Y-104200000D01*
X187320822Y-104116293D01*
X187296405Y-104035804D01*
X187256755Y-103961624D01*
X187203395Y-103896605D01*
X187138376Y-103843245D01*
X187064196Y-103803595D01*
X186983707Y-103779178D01*
X186900000Y-103770934D01*
X185300000Y-103770934D01*
X185216293Y-103779178D01*
X185135804Y-103803595D01*
X185061624Y-103843245D01*
X184996605Y-103896605D01*
X184943245Y-103961624D01*
X184903595Y-104035804D01*
X184879178Y-104116293D01*
X184870934Y-104200000D01*
X183129066Y-104200000D01*
X183120822Y-104116293D01*
X183096405Y-104035804D01*
X183056755Y-103961624D01*
X183003395Y-103896605D01*
X182938376Y-103843245D01*
X182864196Y-103803595D01*
X182783707Y-103779178D01*
X182700000Y-103770934D01*
X181100000Y-103770934D01*
X181016293Y-103779178D01*
X180935804Y-103803595D01*
X180861624Y-103843245D01*
X180796605Y-103896605D01*
X180743245Y-103961624D01*
X180703595Y-104035804D01*
X180679178Y-104116293D01*
X180670934Y-104200000D01*
X178929066Y-104200000D01*
X178920822Y-104116293D01*
X178896405Y-104035804D01*
X178856755Y-103961624D01*
X178803395Y-103896605D01*
X178738376Y-103843245D01*
X178664196Y-103803595D01*
X178583707Y-103779178D01*
X178500000Y-103770934D01*
X176900000Y-103770934D01*
X176816293Y-103779178D01*
X176735804Y-103803595D01*
X176661624Y-103843245D01*
X176596605Y-103896605D01*
X176543245Y-103961624D01*
X176503595Y-104035804D01*
X176479178Y-104116293D01*
X176470934Y-104200000D01*
X174729066Y-104200000D01*
X174720822Y-104116293D01*
X174696405Y-104035804D01*
X174656755Y-103961624D01*
X174603395Y-103896605D01*
X174538376Y-103843245D01*
X174464196Y-103803595D01*
X174383707Y-103779178D01*
X174300000Y-103770934D01*
X172700000Y-103770934D01*
X172616293Y-103779178D01*
X172535804Y-103803595D01*
X172461624Y-103843245D01*
X172396605Y-103896605D01*
X172343245Y-103961624D01*
X172303595Y-104035804D01*
X172279178Y-104116293D01*
X172270934Y-104200000D01*
X170529066Y-104200000D01*
X170520822Y-104116293D01*
X170496405Y-104035804D01*
X170456755Y-103961624D01*
X170403395Y-103896605D01*
X170338376Y-103843245D01*
X170264196Y-103803595D01*
X170183707Y-103779178D01*
X170100000Y-103770934D01*
X168500000Y-103770934D01*
X168416293Y-103779178D01*
X168335804Y-103803595D01*
X168261624Y-103843245D01*
X168196605Y-103896605D01*
X168143245Y-103961624D01*
X168103595Y-104035804D01*
X168079178Y-104116293D01*
X168070934Y-104200000D01*
X164321304Y-104200000D01*
X169637538Y-98883767D01*
X169656684Y-98868054D01*
X169681577Y-98837723D01*
X169719416Y-98791616D01*
X169725494Y-98780245D01*
X169766031Y-98704406D01*
X169794736Y-98609779D01*
X169802000Y-98536023D01*
X169802000Y-98536013D01*
X169804427Y-98511370D01*
X169803271Y-98499633D01*
X169881202Y-98467353D01*
X170082167Y-98333073D01*
X170253073Y-98162167D01*
X170387353Y-97961202D01*
X170479847Y-97737903D01*
X170527000Y-97500849D01*
X170527000Y-97259151D01*
X170479847Y-97022097D01*
X170387353Y-96798798D01*
X170253073Y-96597833D01*
X170082167Y-96426927D01*
X169881202Y-96292647D01*
X169662362Y-96202000D01*
X171612066Y-96202000D01*
X172352960Y-96942895D01*
X172320153Y-97022097D01*
X172273000Y-97259151D01*
X172273000Y-97500849D01*
X172320153Y-97737903D01*
X172412647Y-97961202D01*
X172546927Y-98162167D01*
X172717833Y-98333073D01*
X172918798Y-98467353D01*
X173142097Y-98559847D01*
X173379151Y-98607000D01*
X173620849Y-98607000D01*
X173857903Y-98559847D01*
X174081202Y-98467353D01*
X174282167Y-98333073D01*
X174453073Y-98162167D01*
X174587353Y-97961202D01*
X174679847Y-97737903D01*
X174727000Y-97500849D01*
X174727000Y-97259151D01*
X174679847Y-97022097D01*
X174587353Y-96798798D01*
X174453073Y-96597833D01*
X174282167Y-96426927D01*
X174081202Y-96292647D01*
X173857903Y-96200153D01*
X173620849Y-96153000D01*
X173379151Y-96153000D01*
X173142097Y-96200153D01*
X173062895Y-96232960D01*
X172731925Y-95901990D01*
X175512056Y-95901990D01*
X176552960Y-96942895D01*
X176520153Y-97022097D01*
X176473000Y-97259151D01*
X176473000Y-97500849D01*
X176520153Y-97737903D01*
X176612647Y-97961202D01*
X176746927Y-98162167D01*
X176917833Y-98333073D01*
X177118798Y-98467353D01*
X177342097Y-98559847D01*
X177579151Y-98607000D01*
X177820849Y-98607000D01*
X178057903Y-98559847D01*
X178281202Y-98467353D01*
X178482167Y-98333073D01*
X178653073Y-98162167D01*
X178787353Y-97961202D01*
X178879847Y-97737903D01*
X178927000Y-97500849D01*
X178927000Y-97259151D01*
X178879847Y-97022097D01*
X178787353Y-96798798D01*
X178653073Y-96597833D01*
X178482167Y-96426927D01*
X178281202Y-96292647D01*
X178057903Y-96200153D01*
X177820849Y-96153000D01*
X177579151Y-96153000D01*
X177342097Y-96200153D01*
X177262895Y-96232960D01*
X176631914Y-95601980D01*
X179412046Y-95601980D01*
X180752960Y-96942895D01*
X180720153Y-97022097D01*
X180673000Y-97259151D01*
X180673000Y-97500849D01*
X180720153Y-97737903D01*
X180812647Y-97961202D01*
X180946927Y-98162167D01*
X181117833Y-98333073D01*
X181318798Y-98467353D01*
X181542097Y-98559847D01*
X181779151Y-98607000D01*
X182020849Y-98607000D01*
X182257903Y-98559847D01*
X182481202Y-98467353D01*
X182682167Y-98333073D01*
X182853073Y-98162167D01*
X182987353Y-97961202D01*
X183079847Y-97737903D01*
X183127000Y-97500849D01*
X183127000Y-97259151D01*
X183079847Y-97022097D01*
X182987353Y-96798798D01*
X182853073Y-96597833D01*
X182682167Y-96426927D01*
X182481202Y-96292647D01*
X182257903Y-96200153D01*
X182020849Y-96153000D01*
X181779151Y-96153000D01*
X181542097Y-96200153D01*
X181462895Y-96232960D01*
X180531904Y-95301969D01*
X183312035Y-95301969D01*
X184952960Y-96942895D01*
X184920153Y-97022097D01*
X184873000Y-97259151D01*
X184873000Y-97500849D01*
X184920153Y-97737903D01*
X185012647Y-97961202D01*
X185146927Y-98162167D01*
X185317833Y-98333073D01*
X185518798Y-98467353D01*
X185742097Y-98559847D01*
X185979151Y-98607000D01*
X186220849Y-98607000D01*
X186457903Y-98559847D01*
X186681202Y-98467353D01*
X186882167Y-98333073D01*
X187053073Y-98162167D01*
X187187353Y-97961202D01*
X187279847Y-97737903D01*
X187327000Y-97500849D01*
X187327000Y-97259151D01*
X187279847Y-97022097D01*
X187187353Y-96798798D01*
X187053073Y-96597833D01*
X186882167Y-96426927D01*
X186681202Y-96292647D01*
X186457903Y-96200153D01*
X186220849Y-96153000D01*
X185979151Y-96153000D01*
X185742097Y-96200153D01*
X185662895Y-96232960D01*
X183892366Y-94462432D01*
X183876653Y-94443286D01*
X183800214Y-94380553D01*
X183713005Y-94333939D01*
X183618378Y-94305234D01*
X183544622Y-94297970D01*
X183544613Y-94297970D01*
X183519970Y-94295543D01*
X183495327Y-94297970D01*
X168251848Y-94297972D01*
X168227195Y-94295544D01*
X168128785Y-94305236D01*
X168034158Y-94333941D01*
X167946949Y-94380554D01*
X167889659Y-94427571D01*
X167889646Y-94427584D01*
X167870511Y-94443288D01*
X167854807Y-94462423D01*
X163319232Y-98998000D01*
X159730863Y-98998000D01*
X159846467Y-98950115D01*
X160014674Y-98837723D01*
X160157723Y-98694674D01*
X160270115Y-98526467D01*
X160347533Y-98339565D01*
X160387000Y-98141151D01*
X160387000Y-97938849D01*
X160347533Y-97740435D01*
X160270115Y-97553533D01*
X160157723Y-97385326D01*
X160014674Y-97242277D01*
X159937000Y-97190377D01*
X159937000Y-96349623D01*
X160014674Y-96297723D01*
X160157723Y-96154674D01*
X160270115Y-95986467D01*
X160347533Y-95799565D01*
X160387000Y-95601151D01*
X160387000Y-95398849D01*
X160347533Y-95200435D01*
X160270115Y-95013533D01*
X160157723Y-94845326D01*
X160014674Y-94702277D01*
X159846467Y-94589885D01*
X159659565Y-94512467D01*
X159461151Y-94473000D01*
X159258849Y-94473000D01*
X159167227Y-94491225D01*
X157922190Y-93246188D01*
X192423000Y-93246188D01*
X192423000Y-93753812D01*
X192522033Y-94251683D01*
X192716292Y-94720667D01*
X192998313Y-95142742D01*
X193357258Y-95501687D01*
X193779333Y-95783708D01*
X194248317Y-95977967D01*
X194746188Y-96077000D01*
X195253812Y-96077000D01*
X195751683Y-95977967D01*
X196220667Y-95783708D01*
X196642742Y-95501687D01*
X197001687Y-95142742D01*
X197283708Y-94720667D01*
X197477967Y-94251683D01*
X197577000Y-93753812D01*
X197577000Y-93246188D01*
X197477967Y-92748317D01*
X197283708Y-92279333D01*
X197001687Y-91857258D01*
X196642742Y-91498313D01*
X196220667Y-91216292D01*
X195751683Y-91022033D01*
X195253812Y-90923000D01*
X194746188Y-90923000D01*
X194248317Y-91022033D01*
X193779333Y-91216292D01*
X193357258Y-91498313D01*
X192998313Y-91857258D01*
X192716292Y-92279333D01*
X192522033Y-92748317D01*
X192423000Y-93246188D01*
X157922190Y-93246188D01*
X157788037Y-93112036D01*
X157769974Y-93090026D01*
X157682115Y-93017921D01*
X157581876Y-92964343D01*
X157517770Y-92944897D01*
X157473111Y-92931349D01*
X157418045Y-92925926D01*
X157388336Y-92923000D01*
X157388331Y-92923000D01*
X157360000Y-92920210D01*
X157331669Y-92923000D01*
X155696970Y-92923000D01*
X155696868Y-92922990D01*
X155696863Y-92922990D01*
X155668532Y-92920200D01*
X155640201Y-92922990D01*
X132928349Y-92922990D01*
X132900010Y-92920199D01*
X132786898Y-92931339D01*
X132678133Y-92964333D01*
X132652238Y-92978174D01*
X132577895Y-93017911D01*
X132490036Y-93090016D01*
X132471971Y-93112028D01*
X119292774Y-106291225D01*
X119201151Y-106273000D01*
X118998849Y-106273000D01*
X118800435Y-106312467D01*
X118613533Y-106389885D01*
X118445326Y-106502277D01*
X118302277Y-106645326D01*
X118189885Y-106813533D01*
X118112467Y-107000435D01*
X118073000Y-107198849D01*
X118073000Y-107401151D01*
X118112467Y-107599565D01*
X118189885Y-107786467D01*
X118302277Y-107954674D01*
X118445326Y-108097723D01*
X118523000Y-108149623D01*
X118523001Y-123071659D01*
X118520210Y-123100000D01*
X118531349Y-123213111D01*
X118564344Y-123321876D01*
X118617922Y-123422115D01*
X118648840Y-123459788D01*
X118671963Y-123487964D01*
X118671966Y-123487967D01*
X118690027Y-123509974D01*
X118712034Y-123528035D01*
X121571961Y-126387962D01*
X121590026Y-126409974D01*
X121677885Y-126482079D01*
X121778124Y-126535657D01*
X121886888Y-126568650D01*
X121971664Y-126577000D01*
X121971670Y-126577000D01*
X121999999Y-126579790D01*
X122028328Y-126577000D01*
X130154975Y-126577000D01*
X130255636Y-126644259D01*
X130387942Y-126699062D01*
X130528397Y-126727000D01*
X130671603Y-126727000D01*
X130812058Y-126699062D01*
X130944364Y-126644259D01*
X131045025Y-126577000D01*
X137254975Y-126577000D01*
X137355636Y-126644259D01*
X137487942Y-126699062D01*
X137628397Y-126727000D01*
X137771603Y-126727000D01*
X137912058Y-126699062D01*
X138044364Y-126644259D01*
X138145025Y-126577000D01*
X144354975Y-126577000D01*
X144455636Y-126644259D01*
X144587942Y-126699062D01*
X144728397Y-126727000D01*
X144871603Y-126727000D01*
X145012058Y-126699062D01*
X145144364Y-126644259D01*
X145245025Y-126577000D01*
X151354975Y-126577000D01*
X151455636Y-126644259D01*
X151587942Y-126699062D01*
X151728397Y-126727000D01*
X151871603Y-126727000D01*
X152012058Y-126699062D01*
X152144364Y-126644259D01*
X152245025Y-126577000D01*
X158354975Y-126577000D01*
X158455636Y-126644259D01*
X158587942Y-126699062D01*
X158728397Y-126727000D01*
X158871603Y-126727000D01*
X159012058Y-126699062D01*
X159144364Y-126644259D01*
X159245025Y-126577000D01*
X165354975Y-126577000D01*
X165455636Y-126644259D01*
X165587942Y-126699062D01*
X165728397Y-126727000D01*
X165871603Y-126727000D01*
X166012058Y-126699062D01*
X166144364Y-126644259D01*
X166245025Y-126577000D01*
X172354975Y-126577000D01*
X172455636Y-126644259D01*
X172587942Y-126699062D01*
X172728397Y-126727000D01*
X172871603Y-126727000D01*
X173012058Y-126699062D01*
X173144364Y-126644259D01*
X173245025Y-126577000D01*
X179354975Y-126577000D01*
X179455636Y-126644259D01*
X179587942Y-126699062D01*
X179728397Y-126727000D01*
X179871603Y-126727000D01*
X180012058Y-126699062D01*
X180144364Y-126644259D01*
X180245025Y-126577000D01*
X185671664Y-126577000D01*
X185700000Y-126579791D01*
X185728336Y-126577000D01*
X187317330Y-126577000D01*
X187293960Y-131017264D01*
X187273276Y-131398622D01*
X187215910Y-131773037D01*
X187122239Y-132140071D01*
X186993163Y-132496189D01*
X186829917Y-132837992D01*
X186634057Y-133162222D01*
X186407467Y-133465756D01*
X186152299Y-133745712D01*
X185871001Y-133999405D01*
X185566276Y-134224397D01*
X185241028Y-134418544D01*
X184898360Y-134579993D01*
X184541568Y-134707192D01*
X184174060Y-134798927D01*
X183799330Y-134854324D01*
X183417891Y-134873000D01*
X127659972Y-134873000D01*
X127277245Y-134854198D01*
X126901305Y-134798432D01*
X126532624Y-134706082D01*
X126174782Y-134578045D01*
X125831201Y-134415543D01*
X125505218Y-134220156D01*
X125199949Y-133993753D01*
X124916032Y-133736426D01*
X101263574Y-110083968D01*
X101006247Y-109800051D01*
X100779844Y-109494782D01*
X100584457Y-109168799D01*
X100421955Y-108825218D01*
X100406000Y-108780626D01*
X100406000Y-108149764D01*
X103029841Y-108149764D01*
X103077148Y-108373348D01*
X103298516Y-108474237D01*
X103535313Y-108530000D01*
X103778438Y-108538495D01*
X104018549Y-108499395D01*
X104246418Y-108414202D01*
X104322852Y-108373348D01*
X104370159Y-108149764D01*
X103700000Y-107479605D01*
X103029841Y-108149764D01*
X100406000Y-108149764D01*
X100406000Y-107378438D01*
X102461505Y-107378438D01*
X102500605Y-107618549D01*
X102585798Y-107846418D01*
X102626652Y-107922852D01*
X102850236Y-107970159D01*
X103520395Y-107300000D01*
X103879605Y-107300000D01*
X104549764Y-107970159D01*
X104773348Y-107922852D01*
X104874237Y-107701484D01*
X104930000Y-107464687D01*
X104938495Y-107221562D01*
X104899395Y-106981451D01*
X104814202Y-106753582D01*
X104773348Y-106677148D01*
X104549764Y-106629841D01*
X103879605Y-107300000D01*
X103520395Y-107300000D01*
X102850236Y-106629841D01*
X102626652Y-106677148D01*
X102525763Y-106898516D01*
X102470000Y-107135313D01*
X102461505Y-107378438D01*
X100406000Y-107378438D01*
X100406000Y-106450236D01*
X103029841Y-106450236D01*
X103700000Y-107120395D01*
X104370159Y-106450236D01*
X104322852Y-106226652D01*
X104101484Y-106125763D01*
X103864687Y-106070000D01*
X103621562Y-106061505D01*
X103381451Y-106100605D01*
X103153582Y-106185798D01*
X103077148Y-106226652D01*
X103029841Y-106450236D01*
X100406000Y-106450236D01*
X100406000Y-93246188D01*
X102423000Y-93246188D01*
X102423000Y-93753812D01*
X102522033Y-94251683D01*
X102716292Y-94720667D01*
X102998313Y-95142742D01*
X103357258Y-95501687D01*
X103779333Y-95783708D01*
X104248317Y-95977967D01*
X104746188Y-96077000D01*
X105253812Y-96077000D01*
X105751683Y-95977967D01*
X106220667Y-95783708D01*
X106642742Y-95501687D01*
X107001687Y-95142742D01*
X107283708Y-94720667D01*
X107477967Y-94251683D01*
X107577000Y-93753812D01*
X107577000Y-93246188D01*
X107477967Y-92748317D01*
X107283708Y-92279333D01*
X107001687Y-91857258D01*
X106642742Y-91498313D01*
X106220667Y-91216292D01*
X105751683Y-91022033D01*
X105253812Y-90923000D01*
X104746188Y-90923000D01*
X104248317Y-91022033D01*
X103779333Y-91216292D01*
X103357258Y-91498313D01*
X102998313Y-91857258D01*
X102716292Y-92279333D01*
X102522033Y-92748317D01*
X102423000Y-93246188D01*
X100406000Y-93246188D01*
X100406000Y-91062520D01*
X100421954Y-91017931D01*
X100584459Y-90674343D01*
X100779844Y-90348364D01*
X101006247Y-90043095D01*
X101261484Y-89761484D01*
X101543095Y-89506247D01*
X101848364Y-89279844D01*
X102174343Y-89084459D01*
X102517931Y-88921954D01*
X102562520Y-88906000D01*
X197437480Y-88906000D01*
X197482069Y-88921954D01*
G37*
X197482069Y-88921954D02*
X197825657Y-89084459D01*
X198151636Y-89279844D01*
X198456905Y-89506247D01*
X198738516Y-89761484D01*
X198993753Y-90043095D01*
X199220156Y-90348364D01*
X199415541Y-90674343D01*
X199578046Y-91017931D01*
X199594001Y-91062522D01*
X199594001Y-114560149D01*
X199546718Y-114656029D01*
X199369874Y-114920694D01*
X199160005Y-115160005D01*
X198920694Y-115369874D01*
X198656029Y-115546718D01*
X198370558Y-115687496D01*
X198069148Y-115789812D01*
X197756959Y-115851910D01*
X197435184Y-115873000D01*
X191479003Y-115873000D01*
X191472792Y-115873152D01*
X191082033Y-115892284D01*
X191069671Y-115893497D01*
X190682650Y-115950711D01*
X190670466Y-115953127D01*
X190628960Y-115963488D01*
X190505409Y-115880934D01*
X190172916Y-115743211D01*
X189819944Y-115673000D01*
X189460056Y-115673000D01*
X189107084Y-115743211D01*
X188774591Y-115880934D01*
X188475355Y-116080876D01*
X188220876Y-116335355D01*
X188020934Y-116634591D01*
X187883211Y-116967084D01*
X187813000Y-117320056D01*
X187813000Y-117679944D01*
X187875311Y-117993199D01*
X187849459Y-118035994D01*
X187843564Y-118046928D01*
X187674956Y-118399958D01*
X187670157Y-118411415D01*
X187536843Y-118779227D01*
X187533186Y-118791098D01*
X187436441Y-119170175D01*
X187433962Y-119182346D01*
X187374712Y-119569061D01*
X187373433Y-119581417D01*
X187352244Y-119972070D01*
X187352060Y-119978280D01*
X187323404Y-125423000D01*
X186277000Y-125423000D01*
X186277000Y-121445025D01*
X186344259Y-121344364D01*
X186399062Y-121212058D01*
X186427000Y-121071603D01*
X186427000Y-120928397D01*
X186399062Y-120787942D01*
X186344259Y-120655636D01*
X186264698Y-120536564D01*
X186163436Y-120435302D01*
X186044364Y-120355741D01*
X185912058Y-120300938D01*
X185771603Y-120273000D01*
X185628397Y-120273000D01*
X185487942Y-120300938D01*
X185355636Y-120355741D01*
X185236564Y-120435302D01*
X185135302Y-120536564D01*
X185055741Y-120655636D01*
X185000938Y-120787942D01*
X184973000Y-120928397D01*
X184973000Y-121071603D01*
X185000938Y-121212058D01*
X185055741Y-121344364D01*
X185123000Y-121445025D01*
X185123001Y-125423000D01*
X180245025Y-125423000D01*
X180144364Y-125355741D01*
X180012058Y-125300938D01*
X179871603Y-125273000D01*
X179728397Y-125273000D01*
X179587942Y-125300938D01*
X179455636Y-125355741D01*
X179354975Y-125423000D01*
X173245025Y-125423000D01*
X173144364Y-125355741D01*
X173012058Y-125300938D01*
X172871603Y-125273000D01*
X172728397Y-125273000D01*
X172587942Y-125300938D01*
X172455636Y-125355741D01*
X172354975Y-125423000D01*
X166245025Y-125423000D01*
X166144364Y-125355741D01*
X166012058Y-125300938D01*
X165871603Y-125273000D01*
X165728397Y-125273000D01*
X165587942Y-125300938D01*
X165455636Y-125355741D01*
X165354975Y-125423000D01*
X159245025Y-125423000D01*
X159144364Y-125355741D01*
X159012058Y-125300938D01*
X158871603Y-125273000D01*
X158728397Y-125273000D01*
X158587942Y-125300938D01*
X158455636Y-125355741D01*
X158354975Y-125423000D01*
X152245025Y-125423000D01*
X152144364Y-125355741D01*
X152012058Y-125300938D01*
X151871603Y-125273000D01*
X151728397Y-125273000D01*
X151587942Y-125300938D01*
X151455636Y-125355741D01*
X151354975Y-125423000D01*
X145245025Y-125423000D01*
X145144364Y-125355741D01*
X145012058Y-125300938D01*
X144871603Y-125273000D01*
X144728397Y-125273000D01*
X144587942Y-125300938D01*
X144455636Y-125355741D01*
X144354975Y-125423000D01*
X138145025Y-125423000D01*
X138044364Y-125355741D01*
X137912058Y-125300938D01*
X137771603Y-125273000D01*
X137628397Y-125273000D01*
X137487942Y-125300938D01*
X137355636Y-125355741D01*
X137254975Y-125423000D01*
X131045025Y-125423000D01*
X130944364Y-125355741D01*
X130812058Y-125300938D01*
X130671603Y-125273000D01*
X130528397Y-125273000D01*
X130387942Y-125300938D01*
X130255636Y-125355741D01*
X130154975Y-125423000D01*
X122239001Y-125423000D01*
X119677000Y-122860999D01*
X119677000Y-111879151D01*
X188353000Y-111879151D01*
X188353000Y-112120849D01*
X188400153Y-112357903D01*
X188492647Y-112581202D01*
X188626927Y-112782167D01*
X188797833Y-112953073D01*
X188998798Y-113087353D01*
X189222097Y-113179847D01*
X189459151Y-113227000D01*
X189700849Y-113227000D01*
X189937903Y-113179847D01*
X190161202Y-113087353D01*
X190362167Y-112953073D01*
X190533073Y-112782167D01*
X190667353Y-112581202D01*
X190759847Y-112357903D01*
X190807000Y-112120849D01*
X190807000Y-111879151D01*
X190759847Y-111642097D01*
X190667353Y-111418798D01*
X190533073Y-111217833D01*
X190515240Y-111200000D01*
X195970934Y-111200000D01*
X195970934Y-112800000D01*
X195979178Y-112883707D01*
X196003595Y-112964196D01*
X196043245Y-113038376D01*
X196096605Y-113103395D01*
X196161624Y-113156755D01*
X196235804Y-113196405D01*
X196316293Y-113220822D01*
X196400000Y-113229066D01*
X198000000Y-113229066D01*
X198083707Y-113220822D01*
X198164196Y-113196405D01*
X198238376Y-113156755D01*
X198303395Y-113103395D01*
X198356755Y-113038376D01*
X198396405Y-112964196D01*
X198420822Y-112883707D01*
X198429066Y-112800000D01*
X198429066Y-111200000D01*
X198420822Y-111116293D01*
X198396405Y-111035804D01*
X198356755Y-110961624D01*
X198303395Y-110896605D01*
X198238376Y-110843245D01*
X198164196Y-110803595D01*
X198083707Y-110779178D01*
X198000000Y-110770934D01*
X196400000Y-110770934D01*
X196316293Y-110779178D01*
X196235804Y-110803595D01*
X196161624Y-110843245D01*
X196096605Y-110896605D01*
X196043245Y-110961624D01*
X196003595Y-111035804D01*
X195979178Y-111116293D01*
X195970934Y-111200000D01*
X190515240Y-111200000D01*
X190362167Y-111046927D01*
X190161202Y-110912647D01*
X189937903Y-110820153D01*
X189700849Y-110773000D01*
X189459151Y-110773000D01*
X189222097Y-110820153D01*
X188998798Y-110912647D01*
X188797833Y-111046927D01*
X188626927Y-111217833D01*
X188492647Y-111418798D01*
X188400153Y-111642097D01*
X188353000Y-111879151D01*
X119677000Y-111879151D01*
X119677000Y-108149623D01*
X119752988Y-108098849D01*
X135473000Y-108098849D01*
X135473000Y-108301151D01*
X135512467Y-108499565D01*
X135589885Y-108686467D01*
X135702277Y-108854674D01*
X135845326Y-108997723D01*
X136013533Y-109110115D01*
X136200435Y-109187533D01*
X136398849Y-109227000D01*
X136601151Y-109227000D01*
X136799565Y-109187533D01*
X136986467Y-109110115D01*
X137154674Y-108997723D01*
X137297723Y-108854674D01*
X137410115Y-108686467D01*
X137487533Y-108499565D01*
X137527000Y-108301151D01*
X137527000Y-108098849D01*
X138013000Y-108098849D01*
X138013000Y-108301151D01*
X138052467Y-108499565D01*
X138129885Y-108686467D01*
X138242277Y-108854674D01*
X138385326Y-108997723D01*
X138553533Y-109110115D01*
X138740435Y-109187533D01*
X138938849Y-109227000D01*
X139141151Y-109227000D01*
X139339565Y-109187533D01*
X139526467Y-109110115D01*
X139694674Y-108997723D01*
X139837723Y-108854674D01*
X139950115Y-108686467D01*
X140027533Y-108499565D01*
X140067000Y-108301151D01*
X140067000Y-108098849D01*
X140027533Y-107900435D01*
X139950115Y-107713533D01*
X139837723Y-107545326D01*
X139694674Y-107402277D01*
X139526467Y-107289885D01*
X139339565Y-107212467D01*
X139141151Y-107173000D01*
X138938849Y-107173000D01*
X138740435Y-107212467D01*
X138553533Y-107289885D01*
X138385326Y-107402277D01*
X138242277Y-107545326D01*
X138129885Y-107713533D01*
X138052467Y-107900435D01*
X138013000Y-108098849D01*
X137527000Y-108098849D01*
X137487533Y-107900435D01*
X137410115Y-107713533D01*
X137297723Y-107545326D01*
X137154674Y-107402277D01*
X136986467Y-107289885D01*
X136799565Y-107212467D01*
X136601151Y-107173000D01*
X136398849Y-107173000D01*
X136200435Y-107212467D01*
X136013533Y-107289885D01*
X135845326Y-107402277D01*
X135702277Y-107545326D01*
X135589885Y-107713533D01*
X135512467Y-107900435D01*
X135473000Y-108098849D01*
X119752988Y-108098849D01*
X119754674Y-108097723D01*
X119897723Y-107954674D01*
X120010115Y-107786467D01*
X120087533Y-107599565D01*
X120127000Y-107401151D01*
X120127000Y-107198849D01*
X120108775Y-107107226D01*
X129277152Y-97938849D01*
X135473000Y-97938849D01*
X135473000Y-98141151D01*
X135512467Y-98339565D01*
X135589885Y-98526467D01*
X135702277Y-98694674D01*
X135845326Y-98837723D01*
X136013533Y-98950115D01*
X136200435Y-99027533D01*
X136398849Y-99067000D01*
X136601151Y-99067000D01*
X136799565Y-99027533D01*
X136986467Y-98950115D01*
X137154674Y-98837723D01*
X137297723Y-98694674D01*
X137410115Y-98526467D01*
X137487533Y-98339565D01*
X137527000Y-98141151D01*
X137527000Y-97938849D01*
X137487533Y-97740435D01*
X137410115Y-97553533D01*
X137297723Y-97385326D01*
X137154674Y-97242277D01*
X136986467Y-97129885D01*
X136799565Y-97052467D01*
X136601151Y-97013000D01*
X136398849Y-97013000D01*
X136200435Y-97052467D01*
X136013533Y-97129885D01*
X135845326Y-97242277D01*
X135702277Y-97385326D01*
X135589885Y-97553533D01*
X135512467Y-97740435D01*
X135473000Y-97938849D01*
X129277152Y-97938849D01*
X130866237Y-96349764D01*
X135829841Y-96349764D01*
X135877148Y-96573348D01*
X136098516Y-96674237D01*
X136335313Y-96730000D01*
X136578438Y-96738495D01*
X136818549Y-96699395D01*
X137046418Y-96614202D01*
X137122852Y-96573348D01*
X137170159Y-96349764D01*
X136500000Y-95679605D01*
X135829841Y-96349764D01*
X130866237Y-96349764D01*
X131637563Y-95578438D01*
X135261505Y-95578438D01*
X135300605Y-95818549D01*
X135385798Y-96046418D01*
X135426652Y-96122852D01*
X135650236Y-96170159D01*
X136320395Y-95500000D01*
X136679605Y-95500000D01*
X137349764Y-96170159D01*
X137573348Y-96122852D01*
X137674237Y-95901484D01*
X137730000Y-95664687D01*
X137738495Y-95421562D01*
X137734797Y-95398849D01*
X138013000Y-95398849D01*
X138013000Y-95601151D01*
X138052467Y-95799565D01*
X138129885Y-95986467D01*
X138242277Y-96154674D01*
X138385326Y-96297723D01*
X138553533Y-96410115D01*
X138740435Y-96487533D01*
X138938849Y-96527000D01*
X139141151Y-96527000D01*
X139339565Y-96487533D01*
X139526467Y-96410115D01*
X139616788Y-96349764D01*
X156149841Y-96349764D01*
X156197148Y-96573348D01*
X156418516Y-96674237D01*
X156655313Y-96730000D01*
X156898438Y-96738495D01*
X157138549Y-96699395D01*
X157366418Y-96614202D01*
X157442852Y-96573348D01*
X157490159Y-96349764D01*
X156820000Y-95679605D01*
X156149841Y-96349764D01*
X139616788Y-96349764D01*
X139694674Y-96297723D01*
X139837723Y-96154674D01*
X139950115Y-95986467D01*
X140027533Y-95799565D01*
X140067000Y-95601151D01*
X140067000Y-95578438D01*
X155581505Y-95578438D01*
X155620605Y-95818549D01*
X155705798Y-96046418D01*
X155746652Y-96122852D01*
X155970236Y-96170159D01*
X156640395Y-95500000D01*
X155970236Y-94829841D01*
X155746652Y-94877148D01*
X155645763Y-95098516D01*
X155590000Y-95335313D01*
X155581505Y-95578438D01*
X140067000Y-95578438D01*
X140067000Y-95398849D01*
X140027533Y-95200435D01*
X139950115Y-95013533D01*
X139837723Y-94845326D01*
X139694674Y-94702277D01*
X139526467Y-94589885D01*
X139339565Y-94512467D01*
X139141151Y-94473000D01*
X138938849Y-94473000D01*
X138740435Y-94512467D01*
X138553533Y-94589885D01*
X138385326Y-94702277D01*
X138242277Y-94845326D01*
X138129885Y-95013533D01*
X138052467Y-95200435D01*
X138013000Y-95398849D01*
X137734797Y-95398849D01*
X137699395Y-95181451D01*
X137614202Y-94953582D01*
X137573348Y-94877148D01*
X137349764Y-94829841D01*
X136679605Y-95500000D01*
X136320395Y-95500000D01*
X135650236Y-94829841D01*
X135426652Y-94877148D01*
X135325763Y-95098516D01*
X135270000Y-95335313D01*
X135261505Y-95578438D01*
X131637563Y-95578438D01*
X132565765Y-94650236D01*
X135829841Y-94650236D01*
X136500000Y-95320395D01*
X137170159Y-94650236D01*
X137122852Y-94426652D01*
X136901484Y-94325763D01*
X136664687Y-94270000D01*
X136421562Y-94261505D01*
X136181451Y-94300605D01*
X135953582Y-94385798D01*
X135877148Y-94426652D01*
X135829841Y-94650236D01*
X132565765Y-94650236D01*
X133139011Y-94076990D01*
X155640104Y-94076990D01*
X155640206Y-94077000D01*
X155640213Y-94077000D01*
X155668541Y-94079790D01*
X155696870Y-94077000D01*
X157120999Y-94077000D01*
X157592195Y-94548197D01*
X157490158Y-94650234D01*
X157442852Y-94426652D01*
X157221484Y-94325763D01*
X156984687Y-94270000D01*
X156741562Y-94261505D01*
X156501451Y-94300605D01*
X156273582Y-94385798D01*
X156197148Y-94426652D01*
X156149841Y-94650236D01*
X156820000Y-95320395D01*
X156834143Y-95306253D01*
X157013748Y-95485858D01*
X156999605Y-95500000D01*
X157669764Y-96170159D01*
X157893348Y-96122852D01*
X157994237Y-95901484D01*
X158050000Y-95664687D01*
X158058495Y-95421562D01*
X158019395Y-95181451D01*
X157934202Y-94953582D01*
X157893348Y-94877148D01*
X157669766Y-94829842D01*
X157771803Y-94727805D01*
X158351225Y-95307227D01*
X158333000Y-95398849D01*
X158333000Y-95601151D01*
X158372467Y-95799565D01*
X158449885Y-95986467D01*
X158562277Y-96154674D01*
X158705326Y-96297723D01*
X158783001Y-96349623D01*
X158783000Y-97190377D01*
X158705326Y-97242277D01*
X158562277Y-97385326D01*
X158449885Y-97553533D01*
X158372467Y-97740435D01*
X158333000Y-97938849D01*
X158333000Y-98141151D01*
X158372467Y-98339565D01*
X158449885Y-98526467D01*
X158562277Y-98694674D01*
X158705326Y-98837723D01*
X158873533Y-98950115D01*
X158989137Y-98998000D01*
X157190863Y-98998000D01*
X157306467Y-98950115D01*
X157474674Y-98837723D01*
X157617723Y-98694674D01*
X157730115Y-98526467D01*
X157807533Y-98339565D01*
X157847000Y-98141151D01*
X157847000Y-97938849D01*
X157807533Y-97740435D01*
X157730115Y-97553533D01*
X157617723Y-97385326D01*
X157474674Y-97242277D01*
X157306467Y-97129885D01*
X157119565Y-97052467D01*
X156921151Y-97013000D01*
X156718849Y-97013000D01*
X156520435Y-97052467D01*
X156333533Y-97129885D01*
X156165326Y-97242277D01*
X156022277Y-97385326D01*
X155909885Y-97553533D01*
X155832467Y-97740435D01*
X155793000Y-97938849D01*
X155793000Y-98141151D01*
X155832467Y-98339565D01*
X155909885Y-98526467D01*
X156022277Y-98694674D01*
X156165326Y-98837723D01*
X156333533Y-98950115D01*
X156449137Y-98998000D01*
X139410863Y-98998000D01*
X139526467Y-98950115D01*
X139694674Y-98837723D01*
X139837723Y-98694674D01*
X139950115Y-98526467D01*
X140027533Y-98339565D01*
X140067000Y-98141151D01*
X140067000Y-97938849D01*
X140027533Y-97740435D01*
X139950115Y-97553533D01*
X139837723Y-97385326D01*
X139694674Y-97242277D01*
X139526467Y-97129885D01*
X139339565Y-97052467D01*
X139141151Y-97013000D01*
X138938849Y-97013000D01*
X138740435Y-97052467D01*
X138553533Y-97129885D01*
X138385326Y-97242277D01*
X138242277Y-97385326D01*
X138129885Y-97553533D01*
X138052467Y-97740435D01*
X138013000Y-97938849D01*
X138013000Y-98141151D01*
X138052467Y-98339565D01*
X138129885Y-98526467D01*
X138242277Y-98694674D01*
X138385326Y-98837723D01*
X138553533Y-98950115D01*
X138669137Y-98998000D01*
X137624643Y-98998000D01*
X137600000Y-98995573D01*
X137575357Y-98998000D01*
X137575347Y-98998000D01*
X137501591Y-99005264D01*
X137406964Y-99033969D01*
X137366368Y-99055668D01*
X137319754Y-99080583D01*
X137262464Y-99127600D01*
X137262456Y-99127608D01*
X137243316Y-99143316D01*
X137227607Y-99162457D01*
X136797924Y-99592141D01*
X136601151Y-99553000D01*
X136398849Y-99553000D01*
X136200435Y-99592467D01*
X136013533Y-99669885D01*
X135845326Y-99782277D01*
X135702277Y-99925326D01*
X135589885Y-100093533D01*
X135512467Y-100280435D01*
X135473000Y-100478849D01*
X135473000Y-100681151D01*
X135512467Y-100879565D01*
X135589885Y-101066467D01*
X135702277Y-101234674D01*
X135845326Y-101377723D01*
X136013533Y-101490115D01*
X136200435Y-101567533D01*
X136398849Y-101607000D01*
X136601151Y-101607000D01*
X136799565Y-101567533D01*
X136986467Y-101490115D01*
X137154674Y-101377723D01*
X137297723Y-101234674D01*
X137410115Y-101066467D01*
X137487533Y-100879565D01*
X137527000Y-100681151D01*
X137527000Y-100478849D01*
X137494496Y-100315439D01*
X137807936Y-100002000D01*
X138191045Y-100002000D01*
X138129885Y-100093533D01*
X138052467Y-100280435D01*
X138013000Y-100478849D01*
X138013000Y-100681151D01*
X138052467Y-100879565D01*
X138129885Y-101066467D01*
X138242277Y-101234674D01*
X138385326Y-101377723D01*
X138553533Y-101490115D01*
X138740435Y-101567533D01*
X138938849Y-101607000D01*
X139141151Y-101607000D01*
X139339565Y-101567533D01*
X139526467Y-101490115D01*
X139694674Y-101377723D01*
X139835495Y-101236902D01*
X140736131Y-102137538D01*
X140751844Y-102156684D01*
X140770990Y-102172397D01*
X140770993Y-102172400D01*
X140828282Y-102219417D01*
X140915491Y-102266031D01*
X141010118Y-102294736D01*
X141018960Y-102295607D01*
X141083875Y-102302000D01*
X141083882Y-102302000D01*
X141108528Y-102304427D01*
X141133173Y-102302000D01*
X156195673Y-102302000D01*
X156165326Y-102322277D01*
X156022277Y-102465326D01*
X155909885Y-102633533D01*
X155832467Y-102820435D01*
X155793000Y-103018849D01*
X155793000Y-103221151D01*
X155832467Y-103419565D01*
X155906378Y-103598000D01*
X139953622Y-103598000D01*
X140027533Y-103419565D01*
X140067000Y-103221151D01*
X140067000Y-103018849D01*
X140027533Y-102820435D01*
X139950115Y-102633533D01*
X139837723Y-102465326D01*
X139694674Y-102322277D01*
X139526467Y-102209885D01*
X139339565Y-102132467D01*
X139141151Y-102093000D01*
X138938849Y-102093000D01*
X138740435Y-102132467D01*
X138553533Y-102209885D01*
X138385326Y-102322277D01*
X138242277Y-102465326D01*
X138129885Y-102633533D01*
X138052467Y-102820435D01*
X138013000Y-103018849D01*
X138013000Y-103221151D01*
X138052467Y-103419565D01*
X138126378Y-103598000D01*
X137687935Y-103598000D01*
X137491178Y-103401243D01*
X137527000Y-103221151D01*
X137527000Y-103018849D01*
X137487533Y-102820435D01*
X137410115Y-102633533D01*
X137297723Y-102465326D01*
X137154674Y-102322277D01*
X136986467Y-102209885D01*
X136799565Y-102132467D01*
X136601151Y-102093000D01*
X136398849Y-102093000D01*
X136200435Y-102132467D01*
X136013533Y-102209885D01*
X135845326Y-102322277D01*
X135702277Y-102465326D01*
X135589885Y-102633533D01*
X135512467Y-102820435D01*
X135473000Y-103018849D01*
X135473000Y-103221151D01*
X135512467Y-103419565D01*
X135589885Y-103606467D01*
X135702277Y-103774674D01*
X135845326Y-103917723D01*
X136013533Y-104030115D01*
X136200435Y-104107533D01*
X136398849Y-104147000D01*
X136601151Y-104147000D01*
X136781243Y-104111178D01*
X137060065Y-104390000D01*
X136781243Y-104668822D01*
X136601151Y-104633000D01*
X136398849Y-104633000D01*
X136200435Y-104672467D01*
X136013533Y-104749885D01*
X135845326Y-104862277D01*
X135702277Y-105005326D01*
X135589885Y-105173533D01*
X135512467Y-105360435D01*
X135473000Y-105558849D01*
X135473000Y-105761151D01*
X135512467Y-105959565D01*
X135589885Y-106146467D01*
X135702277Y-106314674D01*
X135845326Y-106457723D01*
X136013533Y-106570115D01*
X136200435Y-106647533D01*
X136398849Y-106687000D01*
X136601151Y-106687000D01*
X136799565Y-106647533D01*
X136986467Y-106570115D01*
X137154674Y-106457723D01*
X137297723Y-106314674D01*
X137410115Y-106146467D01*
X137487533Y-105959565D01*
X137527000Y-105761151D01*
X137527000Y-105558849D01*
X137491178Y-105378757D01*
X137667935Y-105202000D01*
X138118093Y-105202000D01*
X138052467Y-105360435D01*
X138013000Y-105558849D01*
X138013000Y-105761151D01*
X138052467Y-105959565D01*
X138129885Y-106146467D01*
X138242277Y-106314674D01*
X138385326Y-106457723D01*
X138553533Y-106570115D01*
X138740435Y-106647533D01*
X138938849Y-106687000D01*
X139141151Y-106687000D01*
X139339565Y-106647533D01*
X139526467Y-106570115D01*
X139694674Y-106457723D01*
X139835495Y-106316902D01*
X140656131Y-107137538D01*
X140671844Y-107156684D01*
X140690990Y-107172397D01*
X140690992Y-107172399D01*
X140702787Y-107182079D01*
X140748283Y-107219417D01*
X140835492Y-107266031D01*
X140930119Y-107294736D01*
X141003875Y-107302000D01*
X141003884Y-107302000D01*
X141028527Y-107304427D01*
X141053170Y-107302000D01*
X156315402Y-107302000D01*
X156165326Y-107402277D01*
X156022277Y-107545326D01*
X155909885Y-107713533D01*
X155832467Y-107900435D01*
X155793000Y-108098849D01*
X155793000Y-108301151D01*
X155832467Y-108499565D01*
X155909885Y-108686467D01*
X156022277Y-108854674D01*
X156165326Y-108997723D01*
X156333533Y-109110115D01*
X156520435Y-109187533D01*
X156718849Y-109227000D01*
X156921151Y-109227000D01*
X157119565Y-109187533D01*
X157306467Y-109110115D01*
X157474674Y-108997723D01*
X157617723Y-108854674D01*
X157730115Y-108686467D01*
X157807533Y-108499565D01*
X157847000Y-108301151D01*
X157847000Y-108098849D01*
X157807533Y-107900435D01*
X157730115Y-107713533D01*
X157617723Y-107545326D01*
X157474674Y-107402277D01*
X157324598Y-107302000D01*
X158855402Y-107302000D01*
X158705326Y-107402277D01*
X158562277Y-107545326D01*
X158449885Y-107713533D01*
X158372467Y-107900435D01*
X158333000Y-108098849D01*
X158333000Y-108301151D01*
X158372467Y-108499565D01*
X158449885Y-108686467D01*
X158562277Y-108854674D01*
X158705326Y-108997723D01*
X158873533Y-109110115D01*
X159060435Y-109187533D01*
X159258849Y-109227000D01*
X159461151Y-109227000D01*
X159659565Y-109187533D01*
X159846467Y-109110115D01*
X160014674Y-108997723D01*
X160157723Y-108854674D01*
X160270115Y-108686467D01*
X160347533Y-108499565D01*
X160387000Y-108301151D01*
X160387000Y-108098849D01*
X160347533Y-107900435D01*
X160270115Y-107713533D01*
X160157723Y-107545326D01*
X160014674Y-107402277D01*
X159864598Y-107302000D01*
X160986727Y-107302000D01*
X161011370Y-107304427D01*
X161036013Y-107302000D01*
X161036023Y-107302000D01*
X161109779Y-107294736D01*
X161204406Y-107266031D01*
X161291615Y-107219417D01*
X161368054Y-107156684D01*
X161383772Y-107137532D01*
X164321304Y-104200000D01*
X168070934Y-104200000D01*
X168070934Y-105800000D01*
X168079178Y-105883707D01*
X168103595Y-105964196D01*
X168143245Y-106038376D01*
X168196605Y-106103395D01*
X168261624Y-106156755D01*
X168335804Y-106196405D01*
X168416293Y-106220822D01*
X168500000Y-106229066D01*
X170100000Y-106229066D01*
X170183707Y-106220822D01*
X170264196Y-106196405D01*
X170338376Y-106156755D01*
X170403395Y-106103395D01*
X170456755Y-106038376D01*
X170496405Y-105964196D01*
X170520822Y-105883707D01*
X170529066Y-105800000D01*
X170529066Y-104200000D01*
X172270934Y-104200000D01*
X172270934Y-105800000D01*
X172279178Y-105883707D01*
X172303595Y-105964196D01*
X172343245Y-106038376D01*
X172396605Y-106103395D01*
X172461624Y-106156755D01*
X172535804Y-106196405D01*
X172616293Y-106220822D01*
X172700000Y-106229066D01*
X174300000Y-106229066D01*
X174383707Y-106220822D01*
X174464196Y-106196405D01*
X174538376Y-106156755D01*
X174603395Y-106103395D01*
X174656755Y-106038376D01*
X174696405Y-105964196D01*
X174720822Y-105883707D01*
X174729066Y-105800000D01*
X174729066Y-104200000D01*
X176470934Y-104200000D01*
X176470934Y-105800000D01*
X176479178Y-105883707D01*
X176503595Y-105964196D01*
X176543245Y-106038376D01*
X176596605Y-106103395D01*
X176661624Y-106156755D01*
X176735804Y-106196405D01*
X176816293Y-106220822D01*
X176900000Y-106229066D01*
X178500000Y-106229066D01*
X178583707Y-106220822D01*
X178664196Y-106196405D01*
X178738376Y-106156755D01*
X178803395Y-106103395D01*
X178856755Y-106038376D01*
X178896405Y-105964196D01*
X178920822Y-105883707D01*
X178929066Y-105800000D01*
X178929066Y-104200000D01*
X180670934Y-104200000D01*
X180670934Y-105800000D01*
X180679178Y-105883707D01*
X180703595Y-105964196D01*
X180743245Y-106038376D01*
X180796605Y-106103395D01*
X180861624Y-106156755D01*
X180935804Y-106196405D01*
X181016293Y-106220822D01*
X181100000Y-106229066D01*
X182700000Y-106229066D01*
X182783707Y-106220822D01*
X182864196Y-106196405D01*
X182938376Y-106156755D01*
X183003395Y-106103395D01*
X183056755Y-106038376D01*
X183096405Y-105964196D01*
X183120822Y-105883707D01*
X183129066Y-105800000D01*
X183129066Y-104200000D01*
X184870934Y-104200000D01*
X184870934Y-105800000D01*
X184879178Y-105883707D01*
X184903595Y-105964196D01*
X184943245Y-106038376D01*
X184996605Y-106103395D01*
X185061624Y-106156755D01*
X185135804Y-106196405D01*
X185216293Y-106220822D01*
X185300000Y-106229066D01*
X186900000Y-106229066D01*
X186983707Y-106220822D01*
X187064196Y-106196405D01*
X187138376Y-106156755D01*
X187203395Y-106103395D01*
X187256755Y-106038376D01*
X187296405Y-105964196D01*
X187320822Y-105883707D01*
X187329066Y-105800000D01*
X187329066Y-104200000D01*
X187320822Y-104116293D01*
X187296405Y-104035804D01*
X187256755Y-103961624D01*
X187203395Y-103896605D01*
X187138376Y-103843245D01*
X187064196Y-103803595D01*
X186983707Y-103779178D01*
X186900000Y-103770934D01*
X185300000Y-103770934D01*
X185216293Y-103779178D01*
X185135804Y-103803595D01*
X185061624Y-103843245D01*
X184996605Y-103896605D01*
X184943245Y-103961624D01*
X184903595Y-104035804D01*
X184879178Y-104116293D01*
X184870934Y-104200000D01*
X183129066Y-104200000D01*
X183120822Y-104116293D01*
X183096405Y-104035804D01*
X183056755Y-103961624D01*
X183003395Y-103896605D01*
X182938376Y-103843245D01*
X182864196Y-103803595D01*
X182783707Y-103779178D01*
X182700000Y-103770934D01*
X181100000Y-103770934D01*
X181016293Y-103779178D01*
X180935804Y-103803595D01*
X180861624Y-103843245D01*
X180796605Y-103896605D01*
X180743245Y-103961624D01*
X180703595Y-104035804D01*
X180679178Y-104116293D01*
X180670934Y-104200000D01*
X178929066Y-104200000D01*
X178920822Y-104116293D01*
X178896405Y-104035804D01*
X178856755Y-103961624D01*
X178803395Y-103896605D01*
X178738376Y-103843245D01*
X178664196Y-103803595D01*
X178583707Y-103779178D01*
X178500000Y-103770934D01*
X176900000Y-103770934D01*
X176816293Y-103779178D01*
X176735804Y-103803595D01*
X176661624Y-103843245D01*
X176596605Y-103896605D01*
X176543245Y-103961624D01*
X176503595Y-104035804D01*
X176479178Y-104116293D01*
X176470934Y-104200000D01*
X174729066Y-104200000D01*
X174720822Y-104116293D01*
X174696405Y-104035804D01*
X174656755Y-103961624D01*
X174603395Y-103896605D01*
X174538376Y-103843245D01*
X174464196Y-103803595D01*
X174383707Y-103779178D01*
X174300000Y-103770934D01*
X172700000Y-103770934D01*
X172616293Y-103779178D01*
X172535804Y-103803595D01*
X172461624Y-103843245D01*
X172396605Y-103896605D01*
X172343245Y-103961624D01*
X172303595Y-104035804D01*
X172279178Y-104116293D01*
X172270934Y-104200000D01*
X170529066Y-104200000D01*
X170520822Y-104116293D01*
X170496405Y-104035804D01*
X170456755Y-103961624D01*
X170403395Y-103896605D01*
X170338376Y-103843245D01*
X170264196Y-103803595D01*
X170183707Y-103779178D01*
X170100000Y-103770934D01*
X168500000Y-103770934D01*
X168416293Y-103779178D01*
X168335804Y-103803595D01*
X168261624Y-103843245D01*
X168196605Y-103896605D01*
X168143245Y-103961624D01*
X168103595Y-104035804D01*
X168079178Y-104116293D01*
X168070934Y-104200000D01*
X164321304Y-104200000D01*
X169637538Y-98883767D01*
X169656684Y-98868054D01*
X169681577Y-98837723D01*
X169719416Y-98791616D01*
X169725494Y-98780245D01*
X169766031Y-98704406D01*
X169794736Y-98609779D01*
X169802000Y-98536023D01*
X169802000Y-98536013D01*
X169804427Y-98511370D01*
X169803271Y-98499633D01*
X169881202Y-98467353D01*
X170082167Y-98333073D01*
X170253073Y-98162167D01*
X170387353Y-97961202D01*
X170479847Y-97737903D01*
X170527000Y-97500849D01*
X170527000Y-97259151D01*
X170479847Y-97022097D01*
X170387353Y-96798798D01*
X170253073Y-96597833D01*
X170082167Y-96426927D01*
X169881202Y-96292647D01*
X169662362Y-96202000D01*
X171612066Y-96202000D01*
X172352960Y-96942895D01*
X172320153Y-97022097D01*
X172273000Y-97259151D01*
X172273000Y-97500849D01*
X172320153Y-97737903D01*
X172412647Y-97961202D01*
X172546927Y-98162167D01*
X172717833Y-98333073D01*
X172918798Y-98467353D01*
X173142097Y-98559847D01*
X173379151Y-98607000D01*
X173620849Y-98607000D01*
X173857903Y-98559847D01*
X174081202Y-98467353D01*
X174282167Y-98333073D01*
X174453073Y-98162167D01*
X174587353Y-97961202D01*
X174679847Y-97737903D01*
X174727000Y-97500849D01*
X174727000Y-97259151D01*
X174679847Y-97022097D01*
X174587353Y-96798798D01*
X174453073Y-96597833D01*
X174282167Y-96426927D01*
X174081202Y-96292647D01*
X173857903Y-96200153D01*
X173620849Y-96153000D01*
X173379151Y-96153000D01*
X173142097Y-96200153D01*
X173062895Y-96232960D01*
X172731925Y-95901990D01*
X175512056Y-95901990D01*
X176552960Y-96942895D01*
X176520153Y-97022097D01*
X176473000Y-97259151D01*
X176473000Y-97500849D01*
X176520153Y-97737903D01*
X176612647Y-97961202D01*
X176746927Y-98162167D01*
X176917833Y-98333073D01*
X177118798Y-98467353D01*
X177342097Y-98559847D01*
X177579151Y-98607000D01*
X177820849Y-98607000D01*
X178057903Y-98559847D01*
X178281202Y-98467353D01*
X178482167Y-98333073D01*
X178653073Y-98162167D01*
X178787353Y-97961202D01*
X178879847Y-97737903D01*
X178927000Y-97500849D01*
X178927000Y-97259151D01*
X178879847Y-97022097D01*
X178787353Y-96798798D01*
X178653073Y-96597833D01*
X178482167Y-96426927D01*
X178281202Y-96292647D01*
X178057903Y-96200153D01*
X177820849Y-96153000D01*
X177579151Y-96153000D01*
X177342097Y-96200153D01*
X177262895Y-96232960D01*
X176631914Y-95601980D01*
X179412046Y-95601980D01*
X180752960Y-96942895D01*
X180720153Y-97022097D01*
X180673000Y-97259151D01*
X180673000Y-97500849D01*
X180720153Y-97737903D01*
X180812647Y-97961202D01*
X180946927Y-98162167D01*
X181117833Y-98333073D01*
X181318798Y-98467353D01*
X181542097Y-98559847D01*
X181779151Y-98607000D01*
X182020849Y-98607000D01*
X182257903Y-98559847D01*
X182481202Y-98467353D01*
X182682167Y-98333073D01*
X182853073Y-98162167D01*
X182987353Y-97961202D01*
X183079847Y-97737903D01*
X183127000Y-97500849D01*
X183127000Y-97259151D01*
X183079847Y-97022097D01*
X182987353Y-96798798D01*
X182853073Y-96597833D01*
X182682167Y-96426927D01*
X182481202Y-96292647D01*
X182257903Y-96200153D01*
X182020849Y-96153000D01*
X181779151Y-96153000D01*
X181542097Y-96200153D01*
X181462895Y-96232960D01*
X180531904Y-95301969D01*
X183312035Y-95301969D01*
X184952960Y-96942895D01*
X184920153Y-97022097D01*
X184873000Y-97259151D01*
X184873000Y-97500849D01*
X184920153Y-97737903D01*
X185012647Y-97961202D01*
X185146927Y-98162167D01*
X185317833Y-98333073D01*
X185518798Y-98467353D01*
X185742097Y-98559847D01*
X185979151Y-98607000D01*
X186220849Y-98607000D01*
X186457903Y-98559847D01*
X186681202Y-98467353D01*
X186882167Y-98333073D01*
X187053073Y-98162167D01*
X187187353Y-97961202D01*
X187279847Y-97737903D01*
X187327000Y-97500849D01*
X187327000Y-97259151D01*
X187279847Y-97022097D01*
X187187353Y-96798798D01*
X187053073Y-96597833D01*
X186882167Y-96426927D01*
X186681202Y-96292647D01*
X186457903Y-96200153D01*
X186220849Y-96153000D01*
X185979151Y-96153000D01*
X185742097Y-96200153D01*
X185662895Y-96232960D01*
X183892366Y-94462432D01*
X183876653Y-94443286D01*
X183800214Y-94380553D01*
X183713005Y-94333939D01*
X183618378Y-94305234D01*
X183544622Y-94297970D01*
X183544613Y-94297970D01*
X183519970Y-94295543D01*
X183495327Y-94297970D01*
X168251848Y-94297972D01*
X168227195Y-94295544D01*
X168128785Y-94305236D01*
X168034158Y-94333941D01*
X167946949Y-94380554D01*
X167889659Y-94427571D01*
X167889646Y-94427584D01*
X167870511Y-94443288D01*
X167854807Y-94462423D01*
X163319232Y-98998000D01*
X159730863Y-98998000D01*
X159846467Y-98950115D01*
X160014674Y-98837723D01*
X160157723Y-98694674D01*
X160270115Y-98526467D01*
X160347533Y-98339565D01*
X160387000Y-98141151D01*
X160387000Y-97938849D01*
X160347533Y-97740435D01*
X160270115Y-97553533D01*
X160157723Y-97385326D01*
X160014674Y-97242277D01*
X159937000Y-97190377D01*
X159937000Y-96349623D01*
X160014674Y-96297723D01*
X160157723Y-96154674D01*
X160270115Y-95986467D01*
X160347533Y-95799565D01*
X160387000Y-95601151D01*
X160387000Y-95398849D01*
X160347533Y-95200435D01*
X160270115Y-95013533D01*
X160157723Y-94845326D01*
X160014674Y-94702277D01*
X159846467Y-94589885D01*
X159659565Y-94512467D01*
X159461151Y-94473000D01*
X159258849Y-94473000D01*
X159167227Y-94491225D01*
X157922190Y-93246188D01*
X192423000Y-93246188D01*
X192423000Y-93753812D01*
X192522033Y-94251683D01*
X192716292Y-94720667D01*
X192998313Y-95142742D01*
X193357258Y-95501687D01*
X193779333Y-95783708D01*
X194248317Y-95977967D01*
X194746188Y-96077000D01*
X195253812Y-96077000D01*
X195751683Y-95977967D01*
X196220667Y-95783708D01*
X196642742Y-95501687D01*
X197001687Y-95142742D01*
X197283708Y-94720667D01*
X197477967Y-94251683D01*
X197577000Y-93753812D01*
X197577000Y-93246188D01*
X197477967Y-92748317D01*
X197283708Y-92279333D01*
X197001687Y-91857258D01*
X196642742Y-91498313D01*
X196220667Y-91216292D01*
X195751683Y-91022033D01*
X195253812Y-90923000D01*
X194746188Y-90923000D01*
X194248317Y-91022033D01*
X193779333Y-91216292D01*
X193357258Y-91498313D01*
X192998313Y-91857258D01*
X192716292Y-92279333D01*
X192522033Y-92748317D01*
X192423000Y-93246188D01*
X157922190Y-93246188D01*
X157788037Y-93112036D01*
X157769974Y-93090026D01*
X157682115Y-93017921D01*
X157581876Y-92964343D01*
X157517770Y-92944897D01*
X157473111Y-92931349D01*
X157418045Y-92925926D01*
X157388336Y-92923000D01*
X157388331Y-92923000D01*
X157360000Y-92920210D01*
X157331669Y-92923000D01*
X155696970Y-92923000D01*
X155696868Y-92922990D01*
X155696863Y-92922990D01*
X155668532Y-92920200D01*
X155640201Y-92922990D01*
X132928349Y-92922990D01*
X132900010Y-92920199D01*
X132786898Y-92931339D01*
X132678133Y-92964333D01*
X132652238Y-92978174D01*
X132577895Y-93017911D01*
X132490036Y-93090016D01*
X132471971Y-93112028D01*
X119292774Y-106291225D01*
X119201151Y-106273000D01*
X118998849Y-106273000D01*
X118800435Y-106312467D01*
X118613533Y-106389885D01*
X118445326Y-106502277D01*
X118302277Y-106645326D01*
X118189885Y-106813533D01*
X118112467Y-107000435D01*
X118073000Y-107198849D01*
X118073000Y-107401151D01*
X118112467Y-107599565D01*
X118189885Y-107786467D01*
X118302277Y-107954674D01*
X118445326Y-108097723D01*
X118523000Y-108149623D01*
X118523001Y-123071659D01*
X118520210Y-123100000D01*
X118531349Y-123213111D01*
X118564344Y-123321876D01*
X118617922Y-123422115D01*
X118648840Y-123459788D01*
X118671963Y-123487964D01*
X118671966Y-123487967D01*
X118690027Y-123509974D01*
X118712034Y-123528035D01*
X121571961Y-126387962D01*
X121590026Y-126409974D01*
X121677885Y-126482079D01*
X121778124Y-126535657D01*
X121886888Y-126568650D01*
X121971664Y-126577000D01*
X121971670Y-126577000D01*
X121999999Y-126579790D01*
X122028328Y-126577000D01*
X130154975Y-126577000D01*
X130255636Y-126644259D01*
X130387942Y-126699062D01*
X130528397Y-126727000D01*
X130671603Y-126727000D01*
X130812058Y-126699062D01*
X130944364Y-126644259D01*
X131045025Y-126577000D01*
X137254975Y-126577000D01*
X137355636Y-126644259D01*
X137487942Y-126699062D01*
X137628397Y-126727000D01*
X137771603Y-126727000D01*
X137912058Y-126699062D01*
X138044364Y-126644259D01*
X138145025Y-126577000D01*
X144354975Y-126577000D01*
X144455636Y-126644259D01*
X144587942Y-126699062D01*
X144728397Y-126727000D01*
X144871603Y-126727000D01*
X145012058Y-126699062D01*
X145144364Y-126644259D01*
X145245025Y-126577000D01*
X151354975Y-126577000D01*
X151455636Y-126644259D01*
X151587942Y-126699062D01*
X151728397Y-126727000D01*
X151871603Y-126727000D01*
X152012058Y-126699062D01*
X152144364Y-126644259D01*
X152245025Y-126577000D01*
X158354975Y-126577000D01*
X158455636Y-126644259D01*
X158587942Y-126699062D01*
X158728397Y-126727000D01*
X158871603Y-126727000D01*
X159012058Y-126699062D01*
X159144364Y-126644259D01*
X159245025Y-126577000D01*
X165354975Y-126577000D01*
X165455636Y-126644259D01*
X165587942Y-126699062D01*
X165728397Y-126727000D01*
X165871603Y-126727000D01*
X166012058Y-126699062D01*
X166144364Y-126644259D01*
X166245025Y-126577000D01*
X172354975Y-126577000D01*
X172455636Y-126644259D01*
X172587942Y-126699062D01*
X172728397Y-126727000D01*
X172871603Y-126727000D01*
X173012058Y-126699062D01*
X173144364Y-126644259D01*
X173245025Y-126577000D01*
X179354975Y-126577000D01*
X179455636Y-126644259D01*
X179587942Y-126699062D01*
X179728397Y-126727000D01*
X179871603Y-126727000D01*
X180012058Y-126699062D01*
X180144364Y-126644259D01*
X180245025Y-126577000D01*
X185671664Y-126577000D01*
X185700000Y-126579791D01*
X185728336Y-126577000D01*
X187317330Y-126577000D01*
X187293960Y-131017264D01*
X187273276Y-131398622D01*
X187215910Y-131773037D01*
X187122239Y-132140071D01*
X186993163Y-132496189D01*
X186829917Y-132837992D01*
X186634057Y-133162222D01*
X186407467Y-133465756D01*
X186152299Y-133745712D01*
X185871001Y-133999405D01*
X185566276Y-134224397D01*
X185241028Y-134418544D01*
X184898360Y-134579993D01*
X184541568Y-134707192D01*
X184174060Y-134798927D01*
X183799330Y-134854324D01*
X183417891Y-134873000D01*
X127659972Y-134873000D01*
X127277245Y-134854198D01*
X126901305Y-134798432D01*
X126532624Y-134706082D01*
X126174782Y-134578045D01*
X125831201Y-134415543D01*
X125505218Y-134220156D01*
X125199949Y-133993753D01*
X124916032Y-133736426D01*
X101263574Y-110083968D01*
X101006247Y-109800051D01*
X100779844Y-109494782D01*
X100584457Y-109168799D01*
X100421955Y-108825218D01*
X100406000Y-108780626D01*
X100406000Y-108149764D01*
X103029841Y-108149764D01*
X103077148Y-108373348D01*
X103298516Y-108474237D01*
X103535313Y-108530000D01*
X103778438Y-108538495D01*
X104018549Y-108499395D01*
X104246418Y-108414202D01*
X104322852Y-108373348D01*
X104370159Y-108149764D01*
X103700000Y-107479605D01*
X103029841Y-108149764D01*
X100406000Y-108149764D01*
X100406000Y-107378438D01*
X102461505Y-107378438D01*
X102500605Y-107618549D01*
X102585798Y-107846418D01*
X102626652Y-107922852D01*
X102850236Y-107970159D01*
X103520395Y-107300000D01*
X103879605Y-107300000D01*
X104549764Y-107970159D01*
X104773348Y-107922852D01*
X104874237Y-107701484D01*
X104930000Y-107464687D01*
X104938495Y-107221562D01*
X104899395Y-106981451D01*
X104814202Y-106753582D01*
X104773348Y-106677148D01*
X104549764Y-106629841D01*
X103879605Y-107300000D01*
X103520395Y-107300000D01*
X102850236Y-106629841D01*
X102626652Y-106677148D01*
X102525763Y-106898516D01*
X102470000Y-107135313D01*
X102461505Y-107378438D01*
X100406000Y-107378438D01*
X100406000Y-106450236D01*
X103029841Y-106450236D01*
X103700000Y-107120395D01*
X104370159Y-106450236D01*
X104322852Y-106226652D01*
X104101484Y-106125763D01*
X103864687Y-106070000D01*
X103621562Y-106061505D01*
X103381451Y-106100605D01*
X103153582Y-106185798D01*
X103077148Y-106226652D01*
X103029841Y-106450236D01*
X100406000Y-106450236D01*
X100406000Y-93246188D01*
X102423000Y-93246188D01*
X102423000Y-93753812D01*
X102522033Y-94251683D01*
X102716292Y-94720667D01*
X102998313Y-95142742D01*
X103357258Y-95501687D01*
X103779333Y-95783708D01*
X104248317Y-95977967D01*
X104746188Y-96077000D01*
X105253812Y-96077000D01*
X105751683Y-95977967D01*
X106220667Y-95783708D01*
X106642742Y-95501687D01*
X107001687Y-95142742D01*
X107283708Y-94720667D01*
X107477967Y-94251683D01*
X107577000Y-93753812D01*
X107577000Y-93246188D01*
X107477967Y-92748317D01*
X107283708Y-92279333D01*
X107001687Y-91857258D01*
X106642742Y-91498313D01*
X106220667Y-91216292D01*
X105751683Y-91022033D01*
X105253812Y-90923000D01*
X104746188Y-90923000D01*
X104248317Y-91022033D01*
X103779333Y-91216292D01*
X103357258Y-91498313D01*
X102998313Y-91857258D01*
X102716292Y-92279333D01*
X102522033Y-92748317D01*
X102423000Y-93246188D01*
X100406000Y-93246188D01*
X100406000Y-91062520D01*
X100421954Y-91017931D01*
X100584459Y-90674343D01*
X100779844Y-90348364D01*
X101006247Y-90043095D01*
X101261484Y-89761484D01*
X101543095Y-89506247D01*
X101848364Y-89279844D01*
X102174343Y-89084459D01*
X102517931Y-88921954D01*
X102562520Y-88906000D01*
X197437480Y-88906000D01*
X197482069Y-88921954D01*
M02*
