M48
; DRILL file {KiCad (5.1.5)-3} date 03/04/2020 18:34:10
; FORMAT={-:-/ absolute / inch / decimal}
; #@! TF.CreationDate,2020-04-03T18:34:10+02:00
; #@! TF.GenerationSoftware,Kicad,Pcbnew,(5.1.5)-3
; #@! TF.FileFunction,Plated,1,2,PTH
FMAT,2
INCH
T1C0.0118
T2C0.0236
T3C0.0276
T4C0.0315
T5C0.0394
T6C0.0787
%
G90
G05
T1
X5.1417Y-4.9606
X5.2165Y-5.0472
X5.4213Y-4.9606
X5.4961Y-5.0472
X5.7008Y-4.9606
X5.7717Y-5.0472
X5.9764Y-4.9606
X6.0472Y-5.0472
X6.252Y-4.9606
X6.3228Y-5.0472
X6.5276Y-4.9606
X6.6024Y-5.0472
X6.8031Y-4.9606
X6.874Y-5.0472
X7.0787Y-4.9606
X7.1496Y-5.0472
X7.311Y-4.7638
T2
X5.374Y-3.7598
X5.374Y-3.8598
X5.374Y-3.9598
X5.374Y-4.0598
X5.374Y-4.1598
X5.374Y-4.2598
X5.474Y-3.7598
X5.474Y-3.8598
X5.474Y-3.9598
X5.474Y-4.0598
X5.474Y-4.1598
X5.474Y-4.2598
X6.174Y-3.7598
X6.174Y-3.8598
X6.174Y-3.9598
X6.174Y-4.0598
X6.174Y-4.1598
X6.174Y-4.2598
X6.274Y-3.7598
X6.274Y-3.8598
X6.274Y-3.9598
X6.274Y-4.0598
X6.274Y-4.1598
X6.274Y-4.2598
X4.0827Y-4.2244
X4.2874Y-5.3819
X4.4843Y-5.3819
X4.689Y-4.2244
T3
X7.4661Y-4.626
X7.4661Y-4.726
X7.4661Y-5.126
X7.7661Y-4.626
X7.7661Y-4.726
X7.7661Y-5.126
T4
X6.6654Y-3.8339
X6.6654Y-4.1339
X7.4638Y-4.4094
X7.7638Y-4.4094
X6.8307Y-3.8339
X6.8307Y-4.1339
X6.9961Y-3.8339
X6.9961Y-4.1339
X7.3268Y-3.8339
X7.3268Y-4.1339
X7.1614Y-3.8339
X7.1614Y-4.1339
T5
X6.126Y-5.7283
X5.8504Y-5.7283
X6.9528Y-5.7283
X5.2992Y-5.7283
X7.2283Y-5.7283
X5.5748Y-5.7283
X6.6772Y-5.7283
X6.4016Y-5.7283
T6
X7.6181Y-5.3937
X4.5276Y-5.7087
X4.9213Y-5.7087
T0
M30
