G04 #@! TF.GenerationSoftware,KiCad,Pcbnew,(5.1.5)-3*
G04 #@! TF.CreationDate,2020-04-03T18:33:56+02:00*
G04 #@! TF.ProjectId,Calefacci_n_CC2530,43616c65-6661-4636-9369-f36e5f434332,rev?*
G04 #@! TF.SameCoordinates,Original*
G04 #@! TF.FileFunction,Soldermask,Bot*
G04 #@! TF.FilePolarity,Negative*
%FSLAX46Y46*%
G04 Gerber Fmt 4.6, Leading zero omitted, Abs format (unit mm)*
G04 Created by KiCad (PCBNEW (5.1.5)-3) date 2020-04-03 18:33:56*
%MOMM*%
%LPD*%
G04 APERTURE LIST*
%ADD10C,0.100000*%
G04 APERTURE END LIST*
D10*
G36*
X105642007Y-142883582D02*
G01*
X105990225Y-143027819D01*
X106042565Y-143049499D01*
X106403056Y-143290371D01*
X106709629Y-143596944D01*
X106773520Y-143692564D01*
X106950502Y-143957437D01*
X107116418Y-144357993D01*
X107201000Y-144783219D01*
X107201000Y-145216781D01*
X107116418Y-145642007D01*
X106979933Y-145971511D01*
X106950501Y-146042565D01*
X106709629Y-146403056D01*
X106403056Y-146709629D01*
X106042565Y-146950501D01*
X106042564Y-146950502D01*
X106042563Y-146950502D01*
X105642007Y-147116418D01*
X105216781Y-147201000D01*
X104783219Y-147201000D01*
X104357993Y-147116418D01*
X103957437Y-146950502D01*
X103957436Y-146950502D01*
X103957435Y-146950501D01*
X103596944Y-146709629D01*
X103290371Y-146403056D01*
X103049499Y-146042565D01*
X103020067Y-145971511D01*
X102883582Y-145642007D01*
X102799000Y-145216781D01*
X102799000Y-144783219D01*
X102883582Y-144357993D01*
X103049498Y-143957437D01*
X103226480Y-143692564D01*
X103290371Y-143596944D01*
X103596944Y-143290371D01*
X103957435Y-143049499D01*
X104009775Y-143027819D01*
X104357993Y-142883582D01*
X104783219Y-142799000D01*
X105216781Y-142799000D01*
X105642007Y-142883582D01*
G37*
G36*
X195642007Y-142883582D02*
G01*
X195990225Y-143027819D01*
X196042565Y-143049499D01*
X196403056Y-143290371D01*
X196709629Y-143596944D01*
X196773520Y-143692564D01*
X196950502Y-143957437D01*
X197116418Y-144357993D01*
X197201000Y-144783219D01*
X197201000Y-145216781D01*
X197116418Y-145642007D01*
X196979933Y-145971511D01*
X196950501Y-146042565D01*
X196709629Y-146403056D01*
X196403056Y-146709629D01*
X196042565Y-146950501D01*
X196042564Y-146950502D01*
X196042563Y-146950502D01*
X195642007Y-147116418D01*
X195216781Y-147201000D01*
X194783219Y-147201000D01*
X194357993Y-147116418D01*
X193957437Y-146950502D01*
X193957436Y-146950502D01*
X193957435Y-146950501D01*
X193596944Y-146709629D01*
X193290371Y-146403056D01*
X193049499Y-146042565D01*
X193020067Y-145971511D01*
X192883582Y-145642007D01*
X192799000Y-145216781D01*
X192799000Y-144783219D01*
X192883582Y-144357993D01*
X193049498Y-143957437D01*
X193226480Y-143692564D01*
X193290371Y-143596944D01*
X193596944Y-143290371D01*
X193957435Y-143049499D01*
X194009775Y-143027819D01*
X194357993Y-142883582D01*
X194783219Y-142799000D01*
X195216781Y-142799000D01*
X195642007Y-142883582D01*
G37*
G36*
X115598254Y-143027818D02*
G01*
X115971511Y-143182426D01*
X115971513Y-143182427D01*
X116133062Y-143290371D01*
X116307436Y-143406884D01*
X116593116Y-143692564D01*
X116817574Y-144028489D01*
X116972182Y-144401746D01*
X117051000Y-144797993D01*
X117051000Y-145202007D01*
X116972182Y-145598254D01*
X116817574Y-145971511D01*
X116817573Y-145971513D01*
X116593116Y-146307436D01*
X116307436Y-146593116D01*
X115971513Y-146817573D01*
X115971512Y-146817574D01*
X115971511Y-146817574D01*
X115598254Y-146972182D01*
X115202007Y-147051000D01*
X114797993Y-147051000D01*
X114401746Y-146972182D01*
X114028489Y-146817574D01*
X114028488Y-146817574D01*
X114028487Y-146817573D01*
X113692564Y-146593116D01*
X113406884Y-146307436D01*
X113182427Y-145971513D01*
X113182426Y-145971511D01*
X113027818Y-145598254D01*
X112949000Y-145202007D01*
X112949000Y-144797993D01*
X113027818Y-144401746D01*
X113182426Y-144028489D01*
X113406884Y-143692564D01*
X113692564Y-143406884D01*
X113866938Y-143290371D01*
X114028487Y-143182427D01*
X114028489Y-143182426D01*
X114401746Y-143027818D01*
X114797993Y-142949000D01*
X115202007Y-142949000D01*
X115598254Y-143027818D01*
G37*
G36*
X125598254Y-143027818D02*
G01*
X125971511Y-143182426D01*
X125971513Y-143182427D01*
X126133062Y-143290371D01*
X126307436Y-143406884D01*
X126593116Y-143692564D01*
X126817574Y-144028489D01*
X126972182Y-144401746D01*
X127051000Y-144797993D01*
X127051000Y-145202007D01*
X126972182Y-145598254D01*
X126817574Y-145971511D01*
X126817573Y-145971513D01*
X126593116Y-146307436D01*
X126307436Y-146593116D01*
X125971513Y-146817573D01*
X125971512Y-146817574D01*
X125971511Y-146817574D01*
X125598254Y-146972182D01*
X125202007Y-147051000D01*
X124797993Y-147051000D01*
X124401746Y-146972182D01*
X124028489Y-146817574D01*
X124028488Y-146817574D01*
X124028487Y-146817573D01*
X123692564Y-146593116D01*
X123406884Y-146307436D01*
X123182427Y-145971513D01*
X123182426Y-145971511D01*
X123027818Y-145598254D01*
X122949000Y-145202007D01*
X122949000Y-144797993D01*
X123027818Y-144401746D01*
X123182426Y-144028489D01*
X123406884Y-143692564D01*
X123692564Y-143406884D01*
X123866938Y-143290371D01*
X124028487Y-143182427D01*
X124028489Y-143182426D01*
X124401746Y-143027818D01*
X124797993Y-142949000D01*
X125202007Y-142949000D01*
X125598254Y-143027818D01*
G37*
G36*
X176906564Y-144489389D02*
G01*
X177097833Y-144568615D01*
X177097835Y-144568616D01*
X177269973Y-144683635D01*
X177416365Y-144830027D01*
X177531385Y-145002167D01*
X177610611Y-145193436D01*
X177651000Y-145396484D01*
X177651000Y-145603516D01*
X177610611Y-145806564D01*
X177542288Y-145971511D01*
X177531384Y-145997835D01*
X177416365Y-146169973D01*
X177269973Y-146316365D01*
X177097835Y-146431384D01*
X177097834Y-146431385D01*
X177097833Y-146431385D01*
X176906564Y-146510611D01*
X176703516Y-146551000D01*
X176496484Y-146551000D01*
X176293436Y-146510611D01*
X176102167Y-146431385D01*
X176102166Y-146431385D01*
X176102165Y-146431384D01*
X175930027Y-146316365D01*
X175783635Y-146169973D01*
X175668616Y-145997835D01*
X175657712Y-145971511D01*
X175589389Y-145806564D01*
X175549000Y-145603516D01*
X175549000Y-145396484D01*
X175589389Y-145193436D01*
X175668615Y-145002167D01*
X175783635Y-144830027D01*
X175930027Y-144683635D01*
X176102165Y-144568616D01*
X176102167Y-144568615D01*
X176293436Y-144489389D01*
X176496484Y-144449000D01*
X176703516Y-144449000D01*
X176906564Y-144489389D01*
G37*
G36*
X134906564Y-144489389D02*
G01*
X135097833Y-144568615D01*
X135097835Y-144568616D01*
X135269973Y-144683635D01*
X135416365Y-144830027D01*
X135531385Y-145002167D01*
X135610611Y-145193436D01*
X135651000Y-145396484D01*
X135651000Y-145603516D01*
X135610611Y-145806564D01*
X135542288Y-145971511D01*
X135531384Y-145997835D01*
X135416365Y-146169973D01*
X135269973Y-146316365D01*
X135097835Y-146431384D01*
X135097834Y-146431385D01*
X135097833Y-146431385D01*
X134906564Y-146510611D01*
X134703516Y-146551000D01*
X134496484Y-146551000D01*
X134293436Y-146510611D01*
X134102167Y-146431385D01*
X134102166Y-146431385D01*
X134102165Y-146431384D01*
X133930027Y-146316365D01*
X133783635Y-146169973D01*
X133668616Y-145997835D01*
X133657712Y-145971511D01*
X133589389Y-145806564D01*
X133549000Y-145603516D01*
X133549000Y-145396484D01*
X133589389Y-145193436D01*
X133668615Y-145002167D01*
X133783635Y-144830027D01*
X133930027Y-144683635D01*
X134102165Y-144568616D01*
X134102167Y-144568615D01*
X134293436Y-144489389D01*
X134496484Y-144449000D01*
X134703516Y-144449000D01*
X134906564Y-144489389D01*
G37*
G36*
X141906564Y-144489389D02*
G01*
X142097833Y-144568615D01*
X142097835Y-144568616D01*
X142269973Y-144683635D01*
X142416365Y-144830027D01*
X142531385Y-145002167D01*
X142610611Y-145193436D01*
X142651000Y-145396484D01*
X142651000Y-145603516D01*
X142610611Y-145806564D01*
X142542288Y-145971511D01*
X142531384Y-145997835D01*
X142416365Y-146169973D01*
X142269973Y-146316365D01*
X142097835Y-146431384D01*
X142097834Y-146431385D01*
X142097833Y-146431385D01*
X141906564Y-146510611D01*
X141703516Y-146551000D01*
X141496484Y-146551000D01*
X141293436Y-146510611D01*
X141102167Y-146431385D01*
X141102166Y-146431385D01*
X141102165Y-146431384D01*
X140930027Y-146316365D01*
X140783635Y-146169973D01*
X140668616Y-145997835D01*
X140657712Y-145971511D01*
X140589389Y-145806564D01*
X140549000Y-145603516D01*
X140549000Y-145396484D01*
X140589389Y-145193436D01*
X140668615Y-145002167D01*
X140783635Y-144830027D01*
X140930027Y-144683635D01*
X141102165Y-144568616D01*
X141102167Y-144568615D01*
X141293436Y-144489389D01*
X141496484Y-144449000D01*
X141703516Y-144449000D01*
X141906564Y-144489389D01*
G37*
G36*
X148906564Y-144489389D02*
G01*
X149097833Y-144568615D01*
X149097835Y-144568616D01*
X149269973Y-144683635D01*
X149416365Y-144830027D01*
X149531385Y-145002167D01*
X149610611Y-145193436D01*
X149651000Y-145396484D01*
X149651000Y-145603516D01*
X149610611Y-145806564D01*
X149542288Y-145971511D01*
X149531384Y-145997835D01*
X149416365Y-146169973D01*
X149269973Y-146316365D01*
X149097835Y-146431384D01*
X149097834Y-146431385D01*
X149097833Y-146431385D01*
X148906564Y-146510611D01*
X148703516Y-146551000D01*
X148496484Y-146551000D01*
X148293436Y-146510611D01*
X148102167Y-146431385D01*
X148102166Y-146431385D01*
X148102165Y-146431384D01*
X147930027Y-146316365D01*
X147783635Y-146169973D01*
X147668616Y-145997835D01*
X147657712Y-145971511D01*
X147589389Y-145806564D01*
X147549000Y-145603516D01*
X147549000Y-145396484D01*
X147589389Y-145193436D01*
X147668615Y-145002167D01*
X147783635Y-144830027D01*
X147930027Y-144683635D01*
X148102165Y-144568616D01*
X148102167Y-144568615D01*
X148293436Y-144489389D01*
X148496484Y-144449000D01*
X148703516Y-144449000D01*
X148906564Y-144489389D01*
G37*
G36*
X155906564Y-144489389D02*
G01*
X156097833Y-144568615D01*
X156097835Y-144568616D01*
X156269973Y-144683635D01*
X156416365Y-144830027D01*
X156531385Y-145002167D01*
X156610611Y-145193436D01*
X156651000Y-145396484D01*
X156651000Y-145603516D01*
X156610611Y-145806564D01*
X156542288Y-145971511D01*
X156531384Y-145997835D01*
X156416365Y-146169973D01*
X156269973Y-146316365D01*
X156097835Y-146431384D01*
X156097834Y-146431385D01*
X156097833Y-146431385D01*
X155906564Y-146510611D01*
X155703516Y-146551000D01*
X155496484Y-146551000D01*
X155293436Y-146510611D01*
X155102167Y-146431385D01*
X155102166Y-146431385D01*
X155102165Y-146431384D01*
X154930027Y-146316365D01*
X154783635Y-146169973D01*
X154668616Y-145997835D01*
X154657712Y-145971511D01*
X154589389Y-145806564D01*
X154549000Y-145603516D01*
X154549000Y-145396484D01*
X154589389Y-145193436D01*
X154668615Y-145002167D01*
X154783635Y-144830027D01*
X154930027Y-144683635D01*
X155102165Y-144568616D01*
X155102167Y-144568615D01*
X155293436Y-144489389D01*
X155496484Y-144449000D01*
X155703516Y-144449000D01*
X155906564Y-144489389D01*
G37*
G36*
X162906564Y-144489389D02*
G01*
X163097833Y-144568615D01*
X163097835Y-144568616D01*
X163269973Y-144683635D01*
X163416365Y-144830027D01*
X163531385Y-145002167D01*
X163610611Y-145193436D01*
X163651000Y-145396484D01*
X163651000Y-145603516D01*
X163610611Y-145806564D01*
X163542288Y-145971511D01*
X163531384Y-145997835D01*
X163416365Y-146169973D01*
X163269973Y-146316365D01*
X163097835Y-146431384D01*
X163097834Y-146431385D01*
X163097833Y-146431385D01*
X162906564Y-146510611D01*
X162703516Y-146551000D01*
X162496484Y-146551000D01*
X162293436Y-146510611D01*
X162102167Y-146431385D01*
X162102166Y-146431385D01*
X162102165Y-146431384D01*
X161930027Y-146316365D01*
X161783635Y-146169973D01*
X161668616Y-145997835D01*
X161657712Y-145971511D01*
X161589389Y-145806564D01*
X161549000Y-145603516D01*
X161549000Y-145396484D01*
X161589389Y-145193436D01*
X161668615Y-145002167D01*
X161783635Y-144830027D01*
X161930027Y-144683635D01*
X162102165Y-144568616D01*
X162102167Y-144568615D01*
X162293436Y-144489389D01*
X162496484Y-144449000D01*
X162703516Y-144449000D01*
X162906564Y-144489389D01*
G37*
G36*
X169906564Y-144489389D02*
G01*
X170097833Y-144568615D01*
X170097835Y-144568616D01*
X170269973Y-144683635D01*
X170416365Y-144830027D01*
X170531385Y-145002167D01*
X170610611Y-145193436D01*
X170651000Y-145396484D01*
X170651000Y-145603516D01*
X170610611Y-145806564D01*
X170542288Y-145971511D01*
X170531384Y-145997835D01*
X170416365Y-146169973D01*
X170269973Y-146316365D01*
X170097835Y-146431384D01*
X170097834Y-146431385D01*
X170097833Y-146431385D01*
X169906564Y-146510611D01*
X169703516Y-146551000D01*
X169496484Y-146551000D01*
X169293436Y-146510611D01*
X169102167Y-146431385D01*
X169102166Y-146431385D01*
X169102165Y-146431384D01*
X168930027Y-146316365D01*
X168783635Y-146169973D01*
X168668616Y-145997835D01*
X168657712Y-145971511D01*
X168589389Y-145806564D01*
X168549000Y-145603516D01*
X168549000Y-145396484D01*
X168589389Y-145193436D01*
X168668615Y-145002167D01*
X168783635Y-144830027D01*
X168930027Y-144683635D01*
X169102165Y-144568616D01*
X169102167Y-144568615D01*
X169293436Y-144489389D01*
X169496484Y-144449000D01*
X169703516Y-144449000D01*
X169906564Y-144489389D01*
G37*
G36*
X183906564Y-144489389D02*
G01*
X184097833Y-144568615D01*
X184097835Y-144568616D01*
X184269973Y-144683635D01*
X184416365Y-144830027D01*
X184531385Y-145002167D01*
X184610611Y-145193436D01*
X184651000Y-145396484D01*
X184651000Y-145603516D01*
X184610611Y-145806564D01*
X184542288Y-145971511D01*
X184531384Y-145997835D01*
X184416365Y-146169973D01*
X184269973Y-146316365D01*
X184097835Y-146431384D01*
X184097834Y-146431385D01*
X184097833Y-146431385D01*
X183906564Y-146510611D01*
X183703516Y-146551000D01*
X183496484Y-146551000D01*
X183293436Y-146510611D01*
X183102167Y-146431385D01*
X183102166Y-146431385D01*
X183102165Y-146431384D01*
X182930027Y-146316365D01*
X182783635Y-146169973D01*
X182668616Y-145997835D01*
X182657712Y-145971511D01*
X182589389Y-145806564D01*
X182549000Y-145603516D01*
X182549000Y-145396484D01*
X182589389Y-145193436D01*
X182668615Y-145002167D01*
X182783635Y-144830027D01*
X182930027Y-144683635D01*
X183102165Y-144568616D01*
X183102167Y-144568615D01*
X183293436Y-144489389D01*
X183496484Y-144449000D01*
X183703516Y-144449000D01*
X183906564Y-144489389D01*
G37*
G36*
X194098254Y-135027818D02*
G01*
X194471511Y-135182426D01*
X194471513Y-135182427D01*
X194807436Y-135406884D01*
X195093116Y-135692564D01*
X195317574Y-136028489D01*
X195472182Y-136401746D01*
X195551000Y-136797993D01*
X195551000Y-137202007D01*
X195472182Y-137598254D01*
X195317574Y-137971511D01*
X195317573Y-137971513D01*
X195093116Y-138307436D01*
X194807436Y-138593116D01*
X194471513Y-138817573D01*
X194471512Y-138817574D01*
X194471511Y-138817574D01*
X194098254Y-138972182D01*
X193702007Y-139051000D01*
X193297993Y-139051000D01*
X192901746Y-138972182D01*
X192528489Y-138817574D01*
X192528488Y-138817574D01*
X192528487Y-138817573D01*
X192192564Y-138593116D01*
X191906884Y-138307436D01*
X191682427Y-137971513D01*
X191682426Y-137971511D01*
X191527818Y-137598254D01*
X191449000Y-137202007D01*
X191449000Y-136797993D01*
X191527818Y-136401746D01*
X191682426Y-136028489D01*
X191906884Y-135692564D01*
X192192564Y-135406884D01*
X192528487Y-135182427D01*
X192528489Y-135182426D01*
X192901746Y-135027818D01*
X193297993Y-134949000D01*
X193702007Y-134949000D01*
X194098254Y-135027818D01*
G37*
G36*
X114089890Y-136074017D02*
G01*
X114208364Y-136123091D01*
X114314988Y-136194335D01*
X114405665Y-136285012D01*
X114476909Y-136391636D01*
X114525983Y-136510110D01*
X114551000Y-136635882D01*
X114551000Y-136764118D01*
X114525983Y-136889890D01*
X114476909Y-137008364D01*
X114405665Y-137114988D01*
X114314988Y-137205665D01*
X114208364Y-137276909D01*
X114208363Y-137276910D01*
X114208362Y-137276910D01*
X114089890Y-137325983D01*
X113964119Y-137351000D01*
X113835881Y-137351000D01*
X113710110Y-137325983D01*
X113591638Y-137276910D01*
X113591637Y-137276910D01*
X113591636Y-137276909D01*
X113485012Y-137205665D01*
X113394335Y-137114988D01*
X113323091Y-137008364D01*
X113274017Y-136889890D01*
X113249000Y-136764118D01*
X113249000Y-136635882D01*
X113274017Y-136510110D01*
X113323091Y-136391636D01*
X113394335Y-136285012D01*
X113485012Y-136194335D01*
X113591636Y-136123091D01*
X113710110Y-136074017D01*
X113835881Y-136049000D01*
X113964119Y-136049000D01*
X114089890Y-136074017D01*
G37*
G36*
X109089890Y-136074017D02*
G01*
X109208364Y-136123091D01*
X109314988Y-136194335D01*
X109405665Y-136285012D01*
X109476909Y-136391636D01*
X109525983Y-136510110D01*
X109551000Y-136635882D01*
X109551000Y-136764118D01*
X109525983Y-136889890D01*
X109476909Y-137008364D01*
X109405665Y-137114988D01*
X109314988Y-137205665D01*
X109208364Y-137276909D01*
X109208363Y-137276910D01*
X109208362Y-137276910D01*
X109089890Y-137325983D01*
X108964119Y-137351000D01*
X108835881Y-137351000D01*
X108710110Y-137325983D01*
X108591638Y-137276910D01*
X108591637Y-137276910D01*
X108591636Y-137276909D01*
X108485012Y-137205665D01*
X108394335Y-137114988D01*
X108323091Y-137008364D01*
X108274017Y-136889890D01*
X108249000Y-136764118D01*
X108249000Y-136635882D01*
X108274017Y-136510110D01*
X108323091Y-136391636D01*
X108394335Y-136285012D01*
X108485012Y-136194335D01*
X108591636Y-136123091D01*
X108710110Y-136074017D01*
X108835881Y-136049000D01*
X108964119Y-136049000D01*
X109089890Y-136074017D01*
G37*
G36*
X189859059Y-129477860D02*
G01*
X189995732Y-129534472D01*
X190118735Y-129616660D01*
X190223340Y-129721265D01*
X190305528Y-129844268D01*
X190362140Y-129980941D01*
X190391000Y-130126033D01*
X190391000Y-130273967D01*
X190362140Y-130419059D01*
X190305528Y-130555732D01*
X190223340Y-130678735D01*
X190118735Y-130783340D01*
X189995732Y-130865528D01*
X189995731Y-130865529D01*
X189995730Y-130865529D01*
X189859059Y-130922140D01*
X189713968Y-130951000D01*
X189566032Y-130951000D01*
X189420941Y-130922140D01*
X189284270Y-130865529D01*
X189284269Y-130865529D01*
X189284268Y-130865528D01*
X189161265Y-130783340D01*
X189056660Y-130678735D01*
X188974472Y-130555732D01*
X188917860Y-130419059D01*
X188889000Y-130273967D01*
X188889000Y-130126033D01*
X188917860Y-129980941D01*
X188974472Y-129844268D01*
X189056660Y-129721265D01*
X189161265Y-129616660D01*
X189284268Y-129534472D01*
X189420941Y-129477860D01*
X189566032Y-129449000D01*
X189713968Y-129449000D01*
X189859059Y-129477860D01*
G37*
G36*
X197479059Y-129477860D02*
G01*
X197615732Y-129534472D01*
X197738735Y-129616660D01*
X197843340Y-129721265D01*
X197925528Y-129844268D01*
X197982140Y-129980941D01*
X198011000Y-130126033D01*
X198011000Y-130273967D01*
X197982140Y-130419059D01*
X197925528Y-130555732D01*
X197843340Y-130678735D01*
X197738735Y-130783340D01*
X197615732Y-130865528D01*
X197615731Y-130865529D01*
X197615730Y-130865529D01*
X197479059Y-130922140D01*
X197333968Y-130951000D01*
X197186032Y-130951000D01*
X197040941Y-130922140D01*
X196904270Y-130865529D01*
X196904269Y-130865529D01*
X196904268Y-130865528D01*
X196781265Y-130783340D01*
X196676660Y-130678735D01*
X196594472Y-130555732D01*
X196537860Y-130419059D01*
X196509000Y-130273967D01*
X196509000Y-130126033D01*
X196537860Y-129980941D01*
X196594472Y-129844268D01*
X196676660Y-129721265D01*
X196781265Y-129616660D01*
X196904268Y-129534472D01*
X197040941Y-129477860D01*
X197186032Y-129449000D01*
X197333968Y-129449000D01*
X197479059Y-129477860D01*
G37*
G36*
X197479059Y-119317860D02*
G01*
X197615732Y-119374472D01*
X197738735Y-119456660D01*
X197843340Y-119561265D01*
X197925528Y-119684268D01*
X197982140Y-119820941D01*
X198011000Y-119966033D01*
X198011000Y-120113967D01*
X197982140Y-120259059D01*
X197925528Y-120395732D01*
X197843340Y-120518735D01*
X197738735Y-120623340D01*
X197615732Y-120705528D01*
X197615731Y-120705529D01*
X197615730Y-120705529D01*
X197479059Y-120762140D01*
X197333968Y-120791000D01*
X197186032Y-120791000D01*
X197040941Y-120762140D01*
X196904270Y-120705529D01*
X196904269Y-120705529D01*
X196904268Y-120705528D01*
X196781265Y-120623340D01*
X196676660Y-120518735D01*
X196594472Y-120395732D01*
X196537860Y-120259059D01*
X196509000Y-120113967D01*
X196509000Y-119966033D01*
X196537860Y-119820941D01*
X196594472Y-119684268D01*
X196676660Y-119561265D01*
X196781265Y-119456660D01*
X196904268Y-119374472D01*
X197040941Y-119317860D01*
X197186032Y-119289000D01*
X197333968Y-119289000D01*
X197479059Y-119317860D01*
G37*
G36*
X189859059Y-119317860D02*
G01*
X189995732Y-119374472D01*
X190118735Y-119456660D01*
X190223340Y-119561265D01*
X190305528Y-119684268D01*
X190362140Y-119820941D01*
X190391000Y-119966033D01*
X190391000Y-120113967D01*
X190362140Y-120259059D01*
X190305528Y-120395732D01*
X190223340Y-120518735D01*
X190118735Y-120623340D01*
X189995732Y-120705528D01*
X189995731Y-120705529D01*
X189995730Y-120705529D01*
X189859059Y-120762140D01*
X189713968Y-120791000D01*
X189566032Y-120791000D01*
X189420941Y-120762140D01*
X189284270Y-120705529D01*
X189284269Y-120705529D01*
X189284268Y-120705528D01*
X189161265Y-120623340D01*
X189056660Y-120518735D01*
X188974472Y-120395732D01*
X188917860Y-120259059D01*
X188889000Y-120113967D01*
X188889000Y-119966033D01*
X188917860Y-119820941D01*
X188974472Y-119684268D01*
X189056660Y-119561265D01*
X189161265Y-119456660D01*
X189284268Y-119374472D01*
X189420941Y-119317860D01*
X189566032Y-119289000D01*
X189713968Y-119289000D01*
X189859059Y-119317860D01*
G37*
G36*
X189859059Y-116777860D02*
G01*
X189995732Y-116834472D01*
X190118735Y-116916660D01*
X190223340Y-117021265D01*
X190305528Y-117144268D01*
X190362140Y-117280941D01*
X190391000Y-117426033D01*
X190391000Y-117573967D01*
X190362140Y-117719059D01*
X190305528Y-117855732D01*
X190223340Y-117978735D01*
X190118735Y-118083340D01*
X189995732Y-118165528D01*
X189995731Y-118165529D01*
X189995730Y-118165529D01*
X189859059Y-118222140D01*
X189713968Y-118251000D01*
X189566032Y-118251000D01*
X189420941Y-118222140D01*
X189284270Y-118165529D01*
X189284269Y-118165529D01*
X189284268Y-118165528D01*
X189161265Y-118083340D01*
X189056660Y-117978735D01*
X188974472Y-117855732D01*
X188917860Y-117719059D01*
X188889000Y-117573967D01*
X188889000Y-117426033D01*
X188917860Y-117280941D01*
X188974472Y-117144268D01*
X189056660Y-117021265D01*
X189161265Y-116916660D01*
X189284268Y-116834472D01*
X189420941Y-116777860D01*
X189566032Y-116749000D01*
X189713968Y-116749000D01*
X189859059Y-116777860D01*
G37*
G36*
X197479059Y-116777860D02*
G01*
X197615732Y-116834472D01*
X197738735Y-116916660D01*
X197843340Y-117021265D01*
X197925528Y-117144268D01*
X197982140Y-117280941D01*
X198011000Y-117426033D01*
X198011000Y-117573967D01*
X197982140Y-117719059D01*
X197925528Y-117855732D01*
X197843340Y-117978735D01*
X197738735Y-118083340D01*
X197615732Y-118165528D01*
X197615731Y-118165529D01*
X197615730Y-118165529D01*
X197479059Y-118222140D01*
X197333968Y-118251000D01*
X197186032Y-118251000D01*
X197040941Y-118222140D01*
X196904270Y-118165529D01*
X196904269Y-118165529D01*
X196904268Y-118165528D01*
X196781265Y-118083340D01*
X196676660Y-117978735D01*
X196594472Y-117855732D01*
X196537860Y-117719059D01*
X196509000Y-117573967D01*
X196509000Y-117426033D01*
X196537860Y-117280941D01*
X196594472Y-117144268D01*
X196676660Y-117021265D01*
X196781265Y-116916660D01*
X196904268Y-116834472D01*
X197040941Y-116777860D01*
X197186032Y-116749000D01*
X197333968Y-116749000D01*
X197479059Y-116777860D01*
G37*
G36*
X198051000Y-112851000D02*
G01*
X196349000Y-112851000D01*
X196349000Y-111149000D01*
X198051000Y-111149000D01*
X198051000Y-112851000D01*
G37*
G36*
X189828228Y-111181703D02*
G01*
X189983100Y-111245853D01*
X190122481Y-111338985D01*
X190241015Y-111457519D01*
X190334147Y-111596900D01*
X190398297Y-111751772D01*
X190431000Y-111916184D01*
X190431000Y-112083816D01*
X190398297Y-112248228D01*
X190334147Y-112403100D01*
X190241015Y-112542481D01*
X190122481Y-112661015D01*
X189983100Y-112754147D01*
X189828228Y-112818297D01*
X189663816Y-112851000D01*
X189496184Y-112851000D01*
X189331772Y-112818297D01*
X189176900Y-112754147D01*
X189037519Y-112661015D01*
X188918985Y-112542481D01*
X188825853Y-112403100D01*
X188761703Y-112248228D01*
X188729000Y-112083816D01*
X188729000Y-111916184D01*
X188761703Y-111751772D01*
X188825853Y-111596900D01*
X188918985Y-111457519D01*
X189037519Y-111338985D01*
X189176900Y-111245853D01*
X189331772Y-111181703D01*
X189496184Y-111149000D01*
X189663816Y-111149000D01*
X189828228Y-111181703D01*
G37*
G36*
X159549890Y-107574017D02*
G01*
X159632811Y-107608364D01*
X159668364Y-107623091D01*
X159774988Y-107694335D01*
X159865665Y-107785012D01*
X159936909Y-107891636D01*
X159985983Y-108010110D01*
X160011000Y-108135882D01*
X160011000Y-108264118D01*
X159985983Y-108389890D01*
X159936909Y-108508364D01*
X159865665Y-108614988D01*
X159774988Y-108705665D01*
X159668364Y-108776909D01*
X159668363Y-108776910D01*
X159668362Y-108776910D01*
X159549890Y-108825983D01*
X159424119Y-108851000D01*
X159295881Y-108851000D01*
X159170110Y-108825983D01*
X159051638Y-108776910D01*
X159051637Y-108776910D01*
X159051636Y-108776909D01*
X158945012Y-108705665D01*
X158854335Y-108614988D01*
X158783091Y-108508364D01*
X158734017Y-108389890D01*
X158709000Y-108264118D01*
X158709000Y-108135882D01*
X158734017Y-108010110D01*
X158783091Y-107891636D01*
X158854335Y-107785012D01*
X158945012Y-107694335D01*
X159051636Y-107623091D01*
X159087190Y-107608364D01*
X159170110Y-107574017D01*
X159295881Y-107549000D01*
X159424119Y-107549000D01*
X159549890Y-107574017D01*
G37*
G36*
X157009890Y-107574017D02*
G01*
X157092811Y-107608364D01*
X157128364Y-107623091D01*
X157234988Y-107694335D01*
X157325665Y-107785012D01*
X157396909Y-107891636D01*
X157445983Y-108010110D01*
X157471000Y-108135882D01*
X157471000Y-108264118D01*
X157445983Y-108389890D01*
X157396909Y-108508364D01*
X157325665Y-108614988D01*
X157234988Y-108705665D01*
X157128364Y-108776909D01*
X157128363Y-108776910D01*
X157128362Y-108776910D01*
X157009890Y-108825983D01*
X156884119Y-108851000D01*
X156755881Y-108851000D01*
X156630110Y-108825983D01*
X156511638Y-108776910D01*
X156511637Y-108776910D01*
X156511636Y-108776909D01*
X156405012Y-108705665D01*
X156314335Y-108614988D01*
X156243091Y-108508364D01*
X156194017Y-108389890D01*
X156169000Y-108264118D01*
X156169000Y-108135882D01*
X156194017Y-108010110D01*
X156243091Y-107891636D01*
X156314335Y-107785012D01*
X156405012Y-107694335D01*
X156511636Y-107623091D01*
X156547190Y-107608364D01*
X156630110Y-107574017D01*
X156755881Y-107549000D01*
X156884119Y-107549000D01*
X157009890Y-107574017D01*
G37*
G36*
X139229890Y-107574017D02*
G01*
X139312811Y-107608364D01*
X139348364Y-107623091D01*
X139454988Y-107694335D01*
X139545665Y-107785012D01*
X139616909Y-107891636D01*
X139665983Y-108010110D01*
X139691000Y-108135882D01*
X139691000Y-108264118D01*
X139665983Y-108389890D01*
X139616909Y-108508364D01*
X139545665Y-108614988D01*
X139454988Y-108705665D01*
X139348364Y-108776909D01*
X139348363Y-108776910D01*
X139348362Y-108776910D01*
X139229890Y-108825983D01*
X139104119Y-108851000D01*
X138975881Y-108851000D01*
X138850110Y-108825983D01*
X138731638Y-108776910D01*
X138731637Y-108776910D01*
X138731636Y-108776909D01*
X138625012Y-108705665D01*
X138534335Y-108614988D01*
X138463091Y-108508364D01*
X138414017Y-108389890D01*
X138389000Y-108264118D01*
X138389000Y-108135882D01*
X138414017Y-108010110D01*
X138463091Y-107891636D01*
X138534335Y-107785012D01*
X138625012Y-107694335D01*
X138731636Y-107623091D01*
X138767190Y-107608364D01*
X138850110Y-107574017D01*
X138975881Y-107549000D01*
X139104119Y-107549000D01*
X139229890Y-107574017D01*
G37*
G36*
X136689890Y-107574017D02*
G01*
X136772811Y-107608364D01*
X136808364Y-107623091D01*
X136914988Y-107694335D01*
X137005665Y-107785012D01*
X137076909Y-107891636D01*
X137125983Y-108010110D01*
X137151000Y-108135882D01*
X137151000Y-108264118D01*
X137125983Y-108389890D01*
X137076909Y-108508364D01*
X137005665Y-108614988D01*
X136914988Y-108705665D01*
X136808364Y-108776909D01*
X136808363Y-108776910D01*
X136808362Y-108776910D01*
X136689890Y-108825983D01*
X136564119Y-108851000D01*
X136435881Y-108851000D01*
X136310110Y-108825983D01*
X136191638Y-108776910D01*
X136191637Y-108776910D01*
X136191636Y-108776909D01*
X136085012Y-108705665D01*
X135994335Y-108614988D01*
X135923091Y-108508364D01*
X135874017Y-108389890D01*
X135849000Y-108264118D01*
X135849000Y-108135882D01*
X135874017Y-108010110D01*
X135923091Y-107891636D01*
X135994335Y-107785012D01*
X136085012Y-107694335D01*
X136191636Y-107623091D01*
X136227190Y-107608364D01*
X136310110Y-107574017D01*
X136435881Y-107549000D01*
X136564119Y-107549000D01*
X136689890Y-107574017D01*
G37*
G36*
X119289890Y-106674017D02*
G01*
X119408364Y-106723091D01*
X119514988Y-106794335D01*
X119605665Y-106885012D01*
X119676909Y-106991636D01*
X119725983Y-107110110D01*
X119751000Y-107235882D01*
X119751000Y-107364118D01*
X119725983Y-107489890D01*
X119676909Y-107608364D01*
X119605665Y-107714988D01*
X119514988Y-107805665D01*
X119408364Y-107876909D01*
X119408363Y-107876910D01*
X119408362Y-107876910D01*
X119289890Y-107925983D01*
X119164119Y-107951000D01*
X119035881Y-107951000D01*
X118910110Y-107925983D01*
X118791638Y-107876910D01*
X118791637Y-107876910D01*
X118791636Y-107876909D01*
X118685012Y-107805665D01*
X118594335Y-107714988D01*
X118523091Y-107608364D01*
X118474017Y-107489890D01*
X118449000Y-107364118D01*
X118449000Y-107235882D01*
X118474017Y-107110110D01*
X118523091Y-106991636D01*
X118594335Y-106885012D01*
X118685012Y-106794335D01*
X118791636Y-106723091D01*
X118910110Y-106674017D01*
X119035881Y-106649000D01*
X119164119Y-106649000D01*
X119289890Y-106674017D01*
G37*
G36*
X103889890Y-106674017D02*
G01*
X104008364Y-106723091D01*
X104114988Y-106794335D01*
X104205665Y-106885012D01*
X104276909Y-106991636D01*
X104325983Y-107110110D01*
X104351000Y-107235882D01*
X104351000Y-107364118D01*
X104325983Y-107489890D01*
X104276909Y-107608364D01*
X104205665Y-107714988D01*
X104114988Y-107805665D01*
X104008364Y-107876909D01*
X104008363Y-107876910D01*
X104008362Y-107876910D01*
X103889890Y-107925983D01*
X103764119Y-107951000D01*
X103635881Y-107951000D01*
X103510110Y-107925983D01*
X103391638Y-107876910D01*
X103391637Y-107876910D01*
X103391636Y-107876909D01*
X103285012Y-107805665D01*
X103194335Y-107714988D01*
X103123091Y-107608364D01*
X103074017Y-107489890D01*
X103049000Y-107364118D01*
X103049000Y-107235882D01*
X103074017Y-107110110D01*
X103123091Y-106991636D01*
X103194335Y-106885012D01*
X103285012Y-106794335D01*
X103391636Y-106723091D01*
X103510110Y-106674017D01*
X103635881Y-106649000D01*
X103764119Y-106649000D01*
X103889890Y-106674017D01*
G37*
G36*
X159549890Y-105034017D02*
G01*
X159668364Y-105083091D01*
X159774988Y-105154335D01*
X159865665Y-105245012D01*
X159936909Y-105351636D01*
X159985983Y-105470110D01*
X160011000Y-105595882D01*
X160011000Y-105724118D01*
X159985983Y-105849890D01*
X159936909Y-105968364D01*
X159865665Y-106074988D01*
X159774988Y-106165665D01*
X159668364Y-106236909D01*
X159668363Y-106236910D01*
X159668362Y-106236910D01*
X159549890Y-106285983D01*
X159424119Y-106311000D01*
X159295881Y-106311000D01*
X159170110Y-106285983D01*
X159051638Y-106236910D01*
X159051637Y-106236910D01*
X159051636Y-106236909D01*
X158945012Y-106165665D01*
X158854335Y-106074988D01*
X158783091Y-105968364D01*
X158734017Y-105849890D01*
X158709000Y-105724118D01*
X158709000Y-105595882D01*
X158734017Y-105470110D01*
X158783091Y-105351636D01*
X158854335Y-105245012D01*
X158945012Y-105154335D01*
X159051636Y-105083091D01*
X159170110Y-105034017D01*
X159295881Y-105009000D01*
X159424119Y-105009000D01*
X159549890Y-105034017D01*
G37*
G36*
X136689890Y-105034017D02*
G01*
X136808364Y-105083091D01*
X136914988Y-105154335D01*
X137005665Y-105245012D01*
X137076909Y-105351636D01*
X137125983Y-105470110D01*
X137151000Y-105595882D01*
X137151000Y-105724118D01*
X137125983Y-105849890D01*
X137076909Y-105968364D01*
X137005665Y-106074988D01*
X136914988Y-106165665D01*
X136808364Y-106236909D01*
X136808363Y-106236910D01*
X136808362Y-106236910D01*
X136689890Y-106285983D01*
X136564119Y-106311000D01*
X136435881Y-106311000D01*
X136310110Y-106285983D01*
X136191638Y-106236910D01*
X136191637Y-106236910D01*
X136191636Y-106236909D01*
X136085012Y-106165665D01*
X135994335Y-106074988D01*
X135923091Y-105968364D01*
X135874017Y-105849890D01*
X135849000Y-105724118D01*
X135849000Y-105595882D01*
X135874017Y-105470110D01*
X135923091Y-105351636D01*
X135994335Y-105245012D01*
X136085012Y-105154335D01*
X136191636Y-105083091D01*
X136310110Y-105034017D01*
X136435881Y-105009000D01*
X136564119Y-105009000D01*
X136689890Y-105034017D01*
G37*
G36*
X139229890Y-105034017D02*
G01*
X139348364Y-105083091D01*
X139454988Y-105154335D01*
X139545665Y-105245012D01*
X139616909Y-105351636D01*
X139665983Y-105470110D01*
X139691000Y-105595882D01*
X139691000Y-105724118D01*
X139665983Y-105849890D01*
X139616909Y-105968364D01*
X139545665Y-106074988D01*
X139454988Y-106165665D01*
X139348364Y-106236909D01*
X139348363Y-106236910D01*
X139348362Y-106236910D01*
X139229890Y-106285983D01*
X139104119Y-106311000D01*
X138975881Y-106311000D01*
X138850110Y-106285983D01*
X138731638Y-106236910D01*
X138731637Y-106236910D01*
X138731636Y-106236909D01*
X138625012Y-106165665D01*
X138534335Y-106074988D01*
X138463091Y-105968364D01*
X138414017Y-105849890D01*
X138389000Y-105724118D01*
X138389000Y-105595882D01*
X138414017Y-105470110D01*
X138463091Y-105351636D01*
X138534335Y-105245012D01*
X138625012Y-105154335D01*
X138731636Y-105083091D01*
X138850110Y-105034017D01*
X138975881Y-105009000D01*
X139104119Y-105009000D01*
X139229890Y-105034017D01*
G37*
G36*
X157009890Y-105034017D02*
G01*
X157128364Y-105083091D01*
X157234988Y-105154335D01*
X157325665Y-105245012D01*
X157396909Y-105351636D01*
X157445983Y-105470110D01*
X157471000Y-105595882D01*
X157471000Y-105724118D01*
X157445983Y-105849890D01*
X157396909Y-105968364D01*
X157325665Y-106074988D01*
X157234988Y-106165665D01*
X157128364Y-106236909D01*
X157128363Y-106236910D01*
X157128362Y-106236910D01*
X157009890Y-106285983D01*
X156884119Y-106311000D01*
X156755881Y-106311000D01*
X156630110Y-106285983D01*
X156511638Y-106236910D01*
X156511637Y-106236910D01*
X156511636Y-106236909D01*
X156405012Y-106165665D01*
X156314335Y-106074988D01*
X156243091Y-105968364D01*
X156194017Y-105849890D01*
X156169000Y-105724118D01*
X156169000Y-105595882D01*
X156194017Y-105470110D01*
X156243091Y-105351636D01*
X156314335Y-105245012D01*
X156405012Y-105154335D01*
X156511636Y-105083091D01*
X156630110Y-105034017D01*
X156755881Y-105009000D01*
X156884119Y-105009000D01*
X157009890Y-105034017D01*
G37*
G36*
X182751000Y-105851000D02*
G01*
X181049000Y-105851000D01*
X181049000Y-104149000D01*
X182751000Y-104149000D01*
X182751000Y-105851000D01*
G37*
G36*
X186951000Y-105851000D02*
G01*
X185249000Y-105851000D01*
X185249000Y-104149000D01*
X186951000Y-104149000D01*
X186951000Y-105851000D01*
G37*
G36*
X178551000Y-105851000D02*
G01*
X176849000Y-105851000D01*
X176849000Y-104149000D01*
X178551000Y-104149000D01*
X178551000Y-105851000D01*
G37*
G36*
X170151000Y-105851000D02*
G01*
X168449000Y-105851000D01*
X168449000Y-104149000D01*
X170151000Y-104149000D01*
X170151000Y-105851000D01*
G37*
G36*
X174351000Y-105851000D02*
G01*
X172649000Y-105851000D01*
X172649000Y-104149000D01*
X174351000Y-104149000D01*
X174351000Y-105851000D01*
G37*
G36*
X136689890Y-102494017D02*
G01*
X136808364Y-102543091D01*
X136914988Y-102614335D01*
X137005665Y-102705012D01*
X137076909Y-102811636D01*
X137125983Y-102930110D01*
X137151000Y-103055882D01*
X137151000Y-103184118D01*
X137125983Y-103309890D01*
X137076909Y-103428364D01*
X137005665Y-103534988D01*
X136914988Y-103625665D01*
X136808364Y-103696909D01*
X136808363Y-103696910D01*
X136808362Y-103696910D01*
X136689890Y-103745983D01*
X136564119Y-103771000D01*
X136435881Y-103771000D01*
X136310110Y-103745983D01*
X136191638Y-103696910D01*
X136191637Y-103696910D01*
X136191636Y-103696909D01*
X136085012Y-103625665D01*
X135994335Y-103534988D01*
X135923091Y-103428364D01*
X135874017Y-103309890D01*
X135849000Y-103184118D01*
X135849000Y-103055882D01*
X135874017Y-102930110D01*
X135923091Y-102811636D01*
X135994335Y-102705012D01*
X136085012Y-102614335D01*
X136191636Y-102543091D01*
X136310110Y-102494017D01*
X136435881Y-102469000D01*
X136564119Y-102469000D01*
X136689890Y-102494017D01*
G37*
G36*
X159549890Y-102494017D02*
G01*
X159668364Y-102543091D01*
X159774988Y-102614335D01*
X159865665Y-102705012D01*
X159936909Y-102811636D01*
X159985983Y-102930110D01*
X160011000Y-103055882D01*
X160011000Y-103184118D01*
X159985983Y-103309890D01*
X159936909Y-103428364D01*
X159865665Y-103534988D01*
X159774988Y-103625665D01*
X159668364Y-103696909D01*
X159668363Y-103696910D01*
X159668362Y-103696910D01*
X159549890Y-103745983D01*
X159424119Y-103771000D01*
X159295881Y-103771000D01*
X159170110Y-103745983D01*
X159051638Y-103696910D01*
X159051637Y-103696910D01*
X159051636Y-103696909D01*
X158945012Y-103625665D01*
X158854335Y-103534988D01*
X158783091Y-103428364D01*
X158734017Y-103309890D01*
X158709000Y-103184118D01*
X158709000Y-103055882D01*
X158734017Y-102930110D01*
X158783091Y-102811636D01*
X158854335Y-102705012D01*
X158945012Y-102614335D01*
X159051636Y-102543091D01*
X159170110Y-102494017D01*
X159295881Y-102469000D01*
X159424119Y-102469000D01*
X159549890Y-102494017D01*
G37*
G36*
X157009890Y-102494017D02*
G01*
X157128364Y-102543091D01*
X157234988Y-102614335D01*
X157325665Y-102705012D01*
X157396909Y-102811636D01*
X157445983Y-102930110D01*
X157471000Y-103055882D01*
X157471000Y-103184118D01*
X157445983Y-103309890D01*
X157396909Y-103428364D01*
X157325665Y-103534988D01*
X157234988Y-103625665D01*
X157128364Y-103696909D01*
X157128363Y-103696910D01*
X157128362Y-103696910D01*
X157009890Y-103745983D01*
X156884119Y-103771000D01*
X156755881Y-103771000D01*
X156630110Y-103745983D01*
X156511638Y-103696910D01*
X156511637Y-103696910D01*
X156511636Y-103696909D01*
X156405012Y-103625665D01*
X156314335Y-103534988D01*
X156243091Y-103428364D01*
X156194017Y-103309890D01*
X156169000Y-103184118D01*
X156169000Y-103055882D01*
X156194017Y-102930110D01*
X156243091Y-102811636D01*
X156314335Y-102705012D01*
X156405012Y-102614335D01*
X156511636Y-102543091D01*
X156630110Y-102494017D01*
X156755881Y-102469000D01*
X156884119Y-102469000D01*
X157009890Y-102494017D01*
G37*
G36*
X139229890Y-102494017D02*
G01*
X139348364Y-102543091D01*
X139454988Y-102614335D01*
X139545665Y-102705012D01*
X139616909Y-102811636D01*
X139665983Y-102930110D01*
X139691000Y-103055882D01*
X139691000Y-103184118D01*
X139665983Y-103309890D01*
X139616909Y-103428364D01*
X139545665Y-103534988D01*
X139454988Y-103625665D01*
X139348364Y-103696909D01*
X139348363Y-103696910D01*
X139348362Y-103696910D01*
X139229890Y-103745983D01*
X139104119Y-103771000D01*
X138975881Y-103771000D01*
X138850110Y-103745983D01*
X138731638Y-103696910D01*
X138731637Y-103696910D01*
X138731636Y-103696909D01*
X138625012Y-103625665D01*
X138534335Y-103534988D01*
X138463091Y-103428364D01*
X138414017Y-103309890D01*
X138389000Y-103184118D01*
X138389000Y-103055882D01*
X138414017Y-102930110D01*
X138463091Y-102811636D01*
X138534335Y-102705012D01*
X138625012Y-102614335D01*
X138731636Y-102543091D01*
X138850110Y-102494017D01*
X138975881Y-102469000D01*
X139104119Y-102469000D01*
X139229890Y-102494017D01*
G37*
G36*
X157009890Y-99954017D02*
G01*
X157128364Y-100003091D01*
X157234988Y-100074335D01*
X157325665Y-100165012D01*
X157396909Y-100271636D01*
X157445983Y-100390110D01*
X157471000Y-100515882D01*
X157471000Y-100644118D01*
X157445983Y-100769890D01*
X157396909Y-100888364D01*
X157325665Y-100994988D01*
X157234988Y-101085665D01*
X157128364Y-101156909D01*
X157128363Y-101156910D01*
X157128362Y-101156910D01*
X157009890Y-101205983D01*
X156884119Y-101231000D01*
X156755881Y-101231000D01*
X156630110Y-101205983D01*
X156511638Y-101156910D01*
X156511637Y-101156910D01*
X156511636Y-101156909D01*
X156405012Y-101085665D01*
X156314335Y-100994988D01*
X156243091Y-100888364D01*
X156194017Y-100769890D01*
X156169000Y-100644118D01*
X156169000Y-100515882D01*
X156194017Y-100390110D01*
X156243091Y-100271636D01*
X156314335Y-100165012D01*
X156405012Y-100074335D01*
X156511636Y-100003091D01*
X156630110Y-99954017D01*
X156755881Y-99929000D01*
X156884119Y-99929000D01*
X157009890Y-99954017D01*
G37*
G36*
X159549890Y-99954017D02*
G01*
X159668364Y-100003091D01*
X159774988Y-100074335D01*
X159865665Y-100165012D01*
X159936909Y-100271636D01*
X159985983Y-100390110D01*
X160011000Y-100515882D01*
X160011000Y-100644118D01*
X159985983Y-100769890D01*
X159936909Y-100888364D01*
X159865665Y-100994988D01*
X159774988Y-101085665D01*
X159668364Y-101156909D01*
X159668363Y-101156910D01*
X159668362Y-101156910D01*
X159549890Y-101205983D01*
X159424119Y-101231000D01*
X159295881Y-101231000D01*
X159170110Y-101205983D01*
X159051638Y-101156910D01*
X159051637Y-101156910D01*
X159051636Y-101156909D01*
X158945012Y-101085665D01*
X158854335Y-100994988D01*
X158783091Y-100888364D01*
X158734017Y-100769890D01*
X158709000Y-100644118D01*
X158709000Y-100515882D01*
X158734017Y-100390110D01*
X158783091Y-100271636D01*
X158854335Y-100165012D01*
X158945012Y-100074335D01*
X159051636Y-100003091D01*
X159170110Y-99954017D01*
X159295881Y-99929000D01*
X159424119Y-99929000D01*
X159549890Y-99954017D01*
G37*
G36*
X139229890Y-99954017D02*
G01*
X139348364Y-100003091D01*
X139454988Y-100074335D01*
X139545665Y-100165012D01*
X139616909Y-100271636D01*
X139665983Y-100390110D01*
X139691000Y-100515882D01*
X139691000Y-100644118D01*
X139665983Y-100769890D01*
X139616909Y-100888364D01*
X139545665Y-100994988D01*
X139454988Y-101085665D01*
X139348364Y-101156909D01*
X139348363Y-101156910D01*
X139348362Y-101156910D01*
X139229890Y-101205983D01*
X139104119Y-101231000D01*
X138975881Y-101231000D01*
X138850110Y-101205983D01*
X138731638Y-101156910D01*
X138731637Y-101156910D01*
X138731636Y-101156909D01*
X138625012Y-101085665D01*
X138534335Y-100994988D01*
X138463091Y-100888364D01*
X138414017Y-100769890D01*
X138389000Y-100644118D01*
X138389000Y-100515882D01*
X138414017Y-100390110D01*
X138463091Y-100271636D01*
X138534335Y-100165012D01*
X138625012Y-100074335D01*
X138731636Y-100003091D01*
X138850110Y-99954017D01*
X138975881Y-99929000D01*
X139104119Y-99929000D01*
X139229890Y-99954017D01*
G37*
G36*
X136689890Y-99954017D02*
G01*
X136808364Y-100003091D01*
X136914988Y-100074335D01*
X137005665Y-100165012D01*
X137076909Y-100271636D01*
X137125983Y-100390110D01*
X137151000Y-100515882D01*
X137151000Y-100644118D01*
X137125983Y-100769890D01*
X137076909Y-100888364D01*
X137005665Y-100994988D01*
X136914988Y-101085665D01*
X136808364Y-101156909D01*
X136808363Y-101156910D01*
X136808362Y-101156910D01*
X136689890Y-101205983D01*
X136564119Y-101231000D01*
X136435881Y-101231000D01*
X136310110Y-101205983D01*
X136191638Y-101156910D01*
X136191637Y-101156910D01*
X136191636Y-101156909D01*
X136085012Y-101085665D01*
X135994335Y-100994988D01*
X135923091Y-100888364D01*
X135874017Y-100769890D01*
X135849000Y-100644118D01*
X135849000Y-100515882D01*
X135874017Y-100390110D01*
X135923091Y-100271636D01*
X135994335Y-100165012D01*
X136085012Y-100074335D01*
X136191636Y-100003091D01*
X136310110Y-99954017D01*
X136435881Y-99929000D01*
X136564119Y-99929000D01*
X136689890Y-99954017D01*
G37*
G36*
X159549890Y-97414017D02*
G01*
X159668364Y-97463091D01*
X159669449Y-97463816D01*
X159774988Y-97534335D01*
X159865665Y-97625012D01*
X159936910Y-97731638D01*
X159985983Y-97850110D01*
X160011000Y-97975881D01*
X160011000Y-98104119D01*
X159992267Y-98198297D01*
X159985983Y-98229890D01*
X159936909Y-98348364D01*
X159865665Y-98454988D01*
X159774988Y-98545665D01*
X159668364Y-98616909D01*
X159668363Y-98616910D01*
X159668362Y-98616910D01*
X159549890Y-98665983D01*
X159424119Y-98691000D01*
X159295881Y-98691000D01*
X159170110Y-98665983D01*
X159051638Y-98616910D01*
X159051637Y-98616910D01*
X159051636Y-98616909D01*
X158945012Y-98545665D01*
X158854335Y-98454988D01*
X158783091Y-98348364D01*
X158734017Y-98229890D01*
X158727733Y-98198297D01*
X158709000Y-98104119D01*
X158709000Y-97975881D01*
X158734017Y-97850110D01*
X158783090Y-97731638D01*
X158854335Y-97625012D01*
X158945012Y-97534335D01*
X159050551Y-97463816D01*
X159051636Y-97463091D01*
X159170110Y-97414017D01*
X159295881Y-97389000D01*
X159424119Y-97389000D01*
X159549890Y-97414017D01*
G37*
G36*
X136689890Y-97414017D02*
G01*
X136808364Y-97463091D01*
X136809449Y-97463816D01*
X136914988Y-97534335D01*
X137005665Y-97625012D01*
X137076910Y-97731638D01*
X137125983Y-97850110D01*
X137151000Y-97975881D01*
X137151000Y-98104119D01*
X137132267Y-98198297D01*
X137125983Y-98229890D01*
X137076909Y-98348364D01*
X137005665Y-98454988D01*
X136914988Y-98545665D01*
X136808364Y-98616909D01*
X136808363Y-98616910D01*
X136808362Y-98616910D01*
X136689890Y-98665983D01*
X136564119Y-98691000D01*
X136435881Y-98691000D01*
X136310110Y-98665983D01*
X136191638Y-98616910D01*
X136191637Y-98616910D01*
X136191636Y-98616909D01*
X136085012Y-98545665D01*
X135994335Y-98454988D01*
X135923091Y-98348364D01*
X135874017Y-98229890D01*
X135867733Y-98198297D01*
X135849000Y-98104119D01*
X135849000Y-97975881D01*
X135874017Y-97850110D01*
X135923090Y-97731638D01*
X135994335Y-97625012D01*
X136085012Y-97534335D01*
X136190551Y-97463816D01*
X136191636Y-97463091D01*
X136310110Y-97414017D01*
X136435881Y-97389000D01*
X136564119Y-97389000D01*
X136689890Y-97414017D01*
G37*
G36*
X139229890Y-97414017D02*
G01*
X139348364Y-97463091D01*
X139349449Y-97463816D01*
X139454988Y-97534335D01*
X139545665Y-97625012D01*
X139616910Y-97731638D01*
X139665983Y-97850110D01*
X139691000Y-97975881D01*
X139691000Y-98104119D01*
X139672267Y-98198297D01*
X139665983Y-98229890D01*
X139616909Y-98348364D01*
X139545665Y-98454988D01*
X139454988Y-98545665D01*
X139348364Y-98616909D01*
X139348363Y-98616910D01*
X139348362Y-98616910D01*
X139229890Y-98665983D01*
X139104119Y-98691000D01*
X138975881Y-98691000D01*
X138850110Y-98665983D01*
X138731638Y-98616910D01*
X138731637Y-98616910D01*
X138731636Y-98616909D01*
X138625012Y-98545665D01*
X138534335Y-98454988D01*
X138463091Y-98348364D01*
X138414017Y-98229890D01*
X138407733Y-98198297D01*
X138389000Y-98104119D01*
X138389000Y-97975881D01*
X138414017Y-97850110D01*
X138463090Y-97731638D01*
X138534335Y-97625012D01*
X138625012Y-97534335D01*
X138730551Y-97463816D01*
X138731636Y-97463091D01*
X138850110Y-97414017D01*
X138975881Y-97389000D01*
X139104119Y-97389000D01*
X139229890Y-97414017D01*
G37*
G36*
X157009890Y-97414017D02*
G01*
X157128364Y-97463091D01*
X157129449Y-97463816D01*
X157234988Y-97534335D01*
X157325665Y-97625012D01*
X157396910Y-97731638D01*
X157445983Y-97850110D01*
X157471000Y-97975881D01*
X157471000Y-98104119D01*
X157452267Y-98198297D01*
X157445983Y-98229890D01*
X157396909Y-98348364D01*
X157325665Y-98454988D01*
X157234988Y-98545665D01*
X157128364Y-98616909D01*
X157128363Y-98616910D01*
X157128362Y-98616910D01*
X157009890Y-98665983D01*
X156884119Y-98691000D01*
X156755881Y-98691000D01*
X156630110Y-98665983D01*
X156511638Y-98616910D01*
X156511637Y-98616910D01*
X156511636Y-98616909D01*
X156405012Y-98545665D01*
X156314335Y-98454988D01*
X156243091Y-98348364D01*
X156194017Y-98229890D01*
X156187733Y-98198297D01*
X156169000Y-98104119D01*
X156169000Y-97975881D01*
X156194017Y-97850110D01*
X156243090Y-97731638D01*
X156314335Y-97625012D01*
X156405012Y-97534335D01*
X156510551Y-97463816D01*
X156511636Y-97463091D01*
X156630110Y-97414017D01*
X156755881Y-97389000D01*
X156884119Y-97389000D01*
X157009890Y-97414017D01*
G37*
G36*
X173748228Y-96561703D02*
G01*
X173903100Y-96625853D01*
X174042481Y-96718985D01*
X174161015Y-96837519D01*
X174254147Y-96976900D01*
X174318297Y-97131772D01*
X174351000Y-97296184D01*
X174351000Y-97463816D01*
X174318297Y-97628228D01*
X174254147Y-97783100D01*
X174161015Y-97922481D01*
X174042481Y-98041015D01*
X173903100Y-98134147D01*
X173748228Y-98198297D01*
X173583816Y-98231000D01*
X173416184Y-98231000D01*
X173251772Y-98198297D01*
X173096900Y-98134147D01*
X172957519Y-98041015D01*
X172838985Y-97922481D01*
X172745853Y-97783100D01*
X172681703Y-97628228D01*
X172649000Y-97463816D01*
X172649000Y-97296184D01*
X172681703Y-97131772D01*
X172745853Y-96976900D01*
X172838985Y-96837519D01*
X172957519Y-96718985D01*
X173096900Y-96625853D01*
X173251772Y-96561703D01*
X173416184Y-96529000D01*
X173583816Y-96529000D01*
X173748228Y-96561703D01*
G37*
G36*
X186348228Y-96561703D02*
G01*
X186503100Y-96625853D01*
X186642481Y-96718985D01*
X186761015Y-96837519D01*
X186854147Y-96976900D01*
X186918297Y-97131772D01*
X186951000Y-97296184D01*
X186951000Y-97463816D01*
X186918297Y-97628228D01*
X186854147Y-97783100D01*
X186761015Y-97922481D01*
X186642481Y-98041015D01*
X186503100Y-98134147D01*
X186348228Y-98198297D01*
X186183816Y-98231000D01*
X186016184Y-98231000D01*
X185851772Y-98198297D01*
X185696900Y-98134147D01*
X185557519Y-98041015D01*
X185438985Y-97922481D01*
X185345853Y-97783100D01*
X185281703Y-97628228D01*
X185249000Y-97463816D01*
X185249000Y-97296184D01*
X185281703Y-97131772D01*
X185345853Y-96976900D01*
X185438985Y-96837519D01*
X185557519Y-96718985D01*
X185696900Y-96625853D01*
X185851772Y-96561703D01*
X186016184Y-96529000D01*
X186183816Y-96529000D01*
X186348228Y-96561703D01*
G37*
G36*
X182148228Y-96561703D02*
G01*
X182303100Y-96625853D01*
X182442481Y-96718985D01*
X182561015Y-96837519D01*
X182654147Y-96976900D01*
X182718297Y-97131772D01*
X182751000Y-97296184D01*
X182751000Y-97463816D01*
X182718297Y-97628228D01*
X182654147Y-97783100D01*
X182561015Y-97922481D01*
X182442481Y-98041015D01*
X182303100Y-98134147D01*
X182148228Y-98198297D01*
X181983816Y-98231000D01*
X181816184Y-98231000D01*
X181651772Y-98198297D01*
X181496900Y-98134147D01*
X181357519Y-98041015D01*
X181238985Y-97922481D01*
X181145853Y-97783100D01*
X181081703Y-97628228D01*
X181049000Y-97463816D01*
X181049000Y-97296184D01*
X181081703Y-97131772D01*
X181145853Y-96976900D01*
X181238985Y-96837519D01*
X181357519Y-96718985D01*
X181496900Y-96625853D01*
X181651772Y-96561703D01*
X181816184Y-96529000D01*
X181983816Y-96529000D01*
X182148228Y-96561703D01*
G37*
G36*
X177948228Y-96561703D02*
G01*
X178103100Y-96625853D01*
X178242481Y-96718985D01*
X178361015Y-96837519D01*
X178454147Y-96976900D01*
X178518297Y-97131772D01*
X178551000Y-97296184D01*
X178551000Y-97463816D01*
X178518297Y-97628228D01*
X178454147Y-97783100D01*
X178361015Y-97922481D01*
X178242481Y-98041015D01*
X178103100Y-98134147D01*
X177948228Y-98198297D01*
X177783816Y-98231000D01*
X177616184Y-98231000D01*
X177451772Y-98198297D01*
X177296900Y-98134147D01*
X177157519Y-98041015D01*
X177038985Y-97922481D01*
X176945853Y-97783100D01*
X176881703Y-97628228D01*
X176849000Y-97463816D01*
X176849000Y-97296184D01*
X176881703Y-97131772D01*
X176945853Y-96976900D01*
X177038985Y-96837519D01*
X177157519Y-96718985D01*
X177296900Y-96625853D01*
X177451772Y-96561703D01*
X177616184Y-96529000D01*
X177783816Y-96529000D01*
X177948228Y-96561703D01*
G37*
G36*
X169548228Y-96561703D02*
G01*
X169703100Y-96625853D01*
X169842481Y-96718985D01*
X169961015Y-96837519D01*
X170054147Y-96976900D01*
X170118297Y-97131772D01*
X170151000Y-97296184D01*
X170151000Y-97463816D01*
X170118297Y-97628228D01*
X170054147Y-97783100D01*
X169961015Y-97922481D01*
X169842481Y-98041015D01*
X169703100Y-98134147D01*
X169548228Y-98198297D01*
X169383816Y-98231000D01*
X169216184Y-98231000D01*
X169051772Y-98198297D01*
X168896900Y-98134147D01*
X168757519Y-98041015D01*
X168638985Y-97922481D01*
X168545853Y-97783100D01*
X168481703Y-97628228D01*
X168449000Y-97463816D01*
X168449000Y-97296184D01*
X168481703Y-97131772D01*
X168545853Y-96976900D01*
X168638985Y-96837519D01*
X168757519Y-96718985D01*
X168896900Y-96625853D01*
X169051772Y-96561703D01*
X169216184Y-96529000D01*
X169383816Y-96529000D01*
X169548228Y-96561703D01*
G37*
G36*
X136689890Y-94874017D02*
G01*
X136759994Y-94903055D01*
X136808364Y-94923091D01*
X136914988Y-94994335D01*
X137005665Y-95085012D01*
X137076909Y-95191636D01*
X137125983Y-95310110D01*
X137151000Y-95435882D01*
X137151000Y-95564118D01*
X137125983Y-95689890D01*
X137076909Y-95808364D01*
X137005665Y-95914988D01*
X136914988Y-96005665D01*
X136808364Y-96076909D01*
X136808363Y-96076910D01*
X136808362Y-96076910D01*
X136689890Y-96125983D01*
X136564119Y-96151000D01*
X136435881Y-96151000D01*
X136310110Y-96125983D01*
X136191638Y-96076910D01*
X136191637Y-96076910D01*
X136191636Y-96076909D01*
X136085012Y-96005665D01*
X135994335Y-95914988D01*
X135923091Y-95808364D01*
X135874017Y-95689890D01*
X135849000Y-95564118D01*
X135849000Y-95435882D01*
X135874017Y-95310110D01*
X135923091Y-95191636D01*
X135994335Y-95085012D01*
X136085012Y-94994335D01*
X136191636Y-94923091D01*
X136240007Y-94903055D01*
X136310110Y-94874017D01*
X136435881Y-94849000D01*
X136564119Y-94849000D01*
X136689890Y-94874017D01*
G37*
G36*
X159549890Y-94874017D02*
G01*
X159619994Y-94903055D01*
X159668364Y-94923091D01*
X159774988Y-94994335D01*
X159865665Y-95085012D01*
X159936909Y-95191636D01*
X159985983Y-95310110D01*
X160011000Y-95435882D01*
X160011000Y-95564118D01*
X159985983Y-95689890D01*
X159936909Y-95808364D01*
X159865665Y-95914988D01*
X159774988Y-96005665D01*
X159668364Y-96076909D01*
X159668363Y-96076910D01*
X159668362Y-96076910D01*
X159549890Y-96125983D01*
X159424119Y-96151000D01*
X159295881Y-96151000D01*
X159170110Y-96125983D01*
X159051638Y-96076910D01*
X159051637Y-96076910D01*
X159051636Y-96076909D01*
X158945012Y-96005665D01*
X158854335Y-95914988D01*
X158783091Y-95808364D01*
X158734017Y-95689890D01*
X158709000Y-95564118D01*
X158709000Y-95435882D01*
X158734017Y-95310110D01*
X158783091Y-95191636D01*
X158854335Y-95085012D01*
X158945012Y-94994335D01*
X159051636Y-94923091D01*
X159100007Y-94903055D01*
X159170110Y-94874017D01*
X159295881Y-94849000D01*
X159424119Y-94849000D01*
X159549890Y-94874017D01*
G37*
G36*
X157009890Y-94874017D02*
G01*
X157079994Y-94903055D01*
X157128364Y-94923091D01*
X157234988Y-94994335D01*
X157325665Y-95085012D01*
X157396909Y-95191636D01*
X157445983Y-95310110D01*
X157471000Y-95435882D01*
X157471000Y-95564118D01*
X157445983Y-95689890D01*
X157396909Y-95808364D01*
X157325665Y-95914988D01*
X157234988Y-96005665D01*
X157128364Y-96076909D01*
X157128363Y-96076910D01*
X157128362Y-96076910D01*
X157009890Y-96125983D01*
X156884119Y-96151000D01*
X156755881Y-96151000D01*
X156630110Y-96125983D01*
X156511638Y-96076910D01*
X156511637Y-96076910D01*
X156511636Y-96076909D01*
X156405012Y-96005665D01*
X156314335Y-95914988D01*
X156243091Y-95808364D01*
X156194017Y-95689890D01*
X156169000Y-95564118D01*
X156169000Y-95435882D01*
X156194017Y-95310110D01*
X156243091Y-95191636D01*
X156314335Y-95085012D01*
X156405012Y-94994335D01*
X156511636Y-94923091D01*
X156560007Y-94903055D01*
X156630110Y-94874017D01*
X156755881Y-94849000D01*
X156884119Y-94849000D01*
X157009890Y-94874017D01*
G37*
G36*
X139229890Y-94874017D02*
G01*
X139299994Y-94903055D01*
X139348364Y-94923091D01*
X139454988Y-94994335D01*
X139545665Y-95085012D01*
X139616909Y-95191636D01*
X139665983Y-95310110D01*
X139691000Y-95435882D01*
X139691000Y-95564118D01*
X139665983Y-95689890D01*
X139616909Y-95808364D01*
X139545665Y-95914988D01*
X139454988Y-96005665D01*
X139348364Y-96076909D01*
X139348363Y-96076910D01*
X139348362Y-96076910D01*
X139229890Y-96125983D01*
X139104119Y-96151000D01*
X138975881Y-96151000D01*
X138850110Y-96125983D01*
X138731638Y-96076910D01*
X138731637Y-96076910D01*
X138731636Y-96076909D01*
X138625012Y-96005665D01*
X138534335Y-95914988D01*
X138463091Y-95808364D01*
X138414017Y-95689890D01*
X138389000Y-95564118D01*
X138389000Y-95435882D01*
X138414017Y-95310110D01*
X138463091Y-95191636D01*
X138534335Y-95085012D01*
X138625012Y-94994335D01*
X138731636Y-94923091D01*
X138780007Y-94903055D01*
X138850110Y-94874017D01*
X138975881Y-94849000D01*
X139104119Y-94849000D01*
X139229890Y-94874017D01*
G37*
G36*
X195642007Y-91383582D02*
G01*
X196042563Y-91549498D01*
X196042565Y-91549499D01*
X196403056Y-91790371D01*
X196709629Y-92096944D01*
X196950501Y-92457435D01*
X196950502Y-92457437D01*
X197116418Y-92857993D01*
X197201000Y-93283219D01*
X197201000Y-93716781D01*
X197116418Y-94142007D01*
X196950502Y-94542563D01*
X196950501Y-94542565D01*
X196709629Y-94903056D01*
X196403056Y-95209629D01*
X196042565Y-95450501D01*
X196042564Y-95450502D01*
X196042563Y-95450502D01*
X195642007Y-95616418D01*
X195216781Y-95701000D01*
X194783219Y-95701000D01*
X194357993Y-95616418D01*
X193957437Y-95450502D01*
X193957436Y-95450502D01*
X193957435Y-95450501D01*
X193596944Y-95209629D01*
X193290371Y-94903056D01*
X193049499Y-94542565D01*
X193049498Y-94542563D01*
X192883582Y-94142007D01*
X192799000Y-93716781D01*
X192799000Y-93283219D01*
X192883582Y-92857993D01*
X193049498Y-92457437D01*
X193049499Y-92457435D01*
X193290371Y-92096944D01*
X193596944Y-91790371D01*
X193957435Y-91549499D01*
X193957437Y-91549498D01*
X194357993Y-91383582D01*
X194783219Y-91299000D01*
X195216781Y-91299000D01*
X195642007Y-91383582D01*
G37*
G36*
X105642007Y-91383582D02*
G01*
X106042563Y-91549498D01*
X106042565Y-91549499D01*
X106403056Y-91790371D01*
X106709629Y-92096944D01*
X106950501Y-92457435D01*
X106950502Y-92457437D01*
X107116418Y-92857993D01*
X107201000Y-93283219D01*
X107201000Y-93716781D01*
X107116418Y-94142007D01*
X106950502Y-94542563D01*
X106950501Y-94542565D01*
X106709629Y-94903056D01*
X106403056Y-95209629D01*
X106042565Y-95450501D01*
X106042564Y-95450502D01*
X106042563Y-95450502D01*
X105642007Y-95616418D01*
X105216781Y-95701000D01*
X104783219Y-95701000D01*
X104357993Y-95616418D01*
X103957437Y-95450502D01*
X103957436Y-95450502D01*
X103957435Y-95450501D01*
X103596944Y-95209629D01*
X103290371Y-94903056D01*
X103049499Y-94542565D01*
X103049498Y-94542563D01*
X102883582Y-94142007D01*
X102799000Y-93716781D01*
X102799000Y-93283219D01*
X102883582Y-92857993D01*
X103049498Y-92457437D01*
X103049499Y-92457435D01*
X103290371Y-92096944D01*
X103596944Y-91790371D01*
X103957435Y-91549499D01*
X103957437Y-91549498D01*
X104357993Y-91383582D01*
X104783219Y-91299000D01*
X105216781Y-91299000D01*
X105642007Y-91383582D01*
G37*
M02*
